<svg width="730" height="730" viewBox="0 0 730 730" fill="none" xmlns="http://www.w3.org/2000/svg">
<path d="M365 714.363C523.889 714.363 652.693 641.192 652.693 550.931C652.693 460.67 523.889 387.499 365 387.499C206.112 387.499 77.3071 460.67 77.3071 550.931C77.3071 641.192 206.112 714.363 365 714.363Z" fill="#F5F5F5"/>
<path d="M484.72 653.978L269.969 529.98C268.08 528.891 266.511 527.324 265.42 525.437C264.329 523.549 263.754 521.407 263.754 519.227C263.754 517.047 264.329 514.905 265.42 513.017C266.511 511.129 268.08 509.562 269.969 508.474L291.153 495.115C294.81 493.009 298.956 491.9 303.176 491.9C307.397 491.9 311.543 493.009 315.2 495.115L529.98 619.127C531.869 620.216 533.438 621.783 534.529 623.671C535.62 625.558 536.195 627.7 536.195 629.88C536.195 632.061 535.62 634.202 534.529 636.09C533.438 637.978 531.869 639.545 529.98 640.633L508.796 653.978C505.137 656.095 500.985 657.21 496.758 657.21C492.531 657.21 488.379 656.095 484.72 653.978Z" fill="#E0E0E0"/>
<path d="M158.191 540.93C183.929 540.93 204.794 528.948 204.794 514.168C204.794 499.388 183.929 487.406 158.191 487.406C132.453 487.406 111.588 499.388 111.588 514.168C111.588 528.948 132.453 540.93 158.191 540.93Z" fill="#E6E6E6"/>
<path d="M560.874 547.062L581.314 558.815C581.314 558.815 570.875 526.009 576.437 492.94C578.54 480.442 583.051 474.237 584.628 470.894C586.205 467.55 598.425 446.891 587.548 437.43C576.671 427.97 551.369 446.993 552.741 497.904C553.365 514.567 556.098 531.085 560.874 547.062Z" fill="#407BFF"/>
<path opacity="0.5" d="M560.874 547.062L581.314 558.815C581.314 558.815 570.875 526.009 576.437 492.94C578.54 480.442 583.051 474.237 584.628 470.894C586.205 467.55 598.425 446.891 587.548 437.43C576.671 427.97 551.369 446.993 552.741 497.904C553.365 514.567 556.098 531.085 560.874 547.062Z" fill="black"/>
<path d="M570.378 553.252C570.23 553.255 570.084 553.212 569.961 553.128C569.838 553.045 569.744 552.925 569.692 552.785C569.619 552.566 561.808 531.221 562.056 496.911C562.305 462.601 580.336 443.971 580.511 443.796C580.579 443.728 580.659 443.673 580.748 443.636C580.837 443.599 580.933 443.58 581.029 443.58C581.125 443.58 581.221 443.599 581.31 443.636C581.399 443.673 581.479 443.728 581.547 443.796C581.616 443.864 581.67 443.945 581.707 444.034C581.744 444.123 581.763 444.218 581.763 444.314C581.763 444.411 581.744 444.506 581.707 444.595C581.67 444.684 581.616 444.765 581.547 444.833C581.372 445.008 563.765 463.083 563.516 496.925C563.268 530.768 570.977 552.084 571.065 552.289C571.13 552.471 571.121 552.671 571.039 552.846C570.957 553.022 570.808 553.157 570.627 553.223C570.546 553.248 570.462 553.258 570.378 553.252Z" fill="white"/>
<path d="M569.4 552.084L597.344 568.144C600.256 569.865 603.71 570.426 607.016 569.714C610.323 569.003 613.24 567.071 615.186 564.304C617.035 561.426 617.816 557.99 617.39 554.595C616.047 540.083 609.74 536.74 617.463 530.272C625.187 523.804 627.201 523.351 626.763 517.132C626.325 510.912 622.077 508.197 620.062 505.744C618.047 503.291 612.47 498.152 616.266 490.56C620.062 482.968 625.245 475.624 617.39 472.266C612.704 470.251 604.893 472.938 599.753 478.515C594.614 484.092 590.38 488.107 585.46 489.45C580.54 490.793 570.291 491.012 570.729 499.495C571.167 507.978 573.415 510.883 571.4 514.664C567.604 521.731 551.092 525.746 569.4 552.084Z" fill="#407BFF"/>
<path d="M583.212 560.728C583.03 560.722 582.856 560.651 582.722 560.527C582.588 560.404 582.502 560.237 582.482 560.056C582.482 559.56 578.189 509.452 612.645 476.106C612.787 475.989 612.968 475.929 613.152 475.94C613.336 475.951 613.509 476.031 613.637 476.164C613.764 476.297 613.837 476.473 613.84 476.657C613.843 476.842 613.776 477.02 613.653 477.157C579.693 510.022 583.898 559.428 583.942 559.925C583.958 560.116 583.898 560.306 583.775 560.454C583.652 560.601 583.476 560.694 583.285 560.713L583.212 560.728Z" fill="white"/>
<path d="M588.745 517.599C588.561 517.6 588.384 517.531 588.249 517.406C588.113 517.282 588.03 517.111 588.015 516.928C587.709 513.045 586.616 509.264 584.801 505.818C582.986 502.372 580.488 499.331 577.459 496.882C577.38 496.826 577.313 496.756 577.262 496.675C577.21 496.593 577.175 496.502 577.159 496.407C577.142 496.312 577.145 496.215 577.167 496.121C577.188 496.027 577.228 495.938 577.284 495.86C577.338 495.781 577.407 495.714 577.487 495.663C577.567 495.612 577.657 495.577 577.751 495.56C577.845 495.544 577.941 495.547 578.034 495.568C578.127 495.589 578.214 495.629 578.291 495.685C581.519 498.244 584.18 501.446 586.105 505.088C588.03 508.73 589.178 512.731 589.475 516.84C589.491 517.035 589.43 517.229 589.304 517.379C589.178 517.53 588.999 517.624 588.803 517.643L588.745 517.599Z" fill="white"/>
<path d="M586.365 526.198C586.189 526.2 586.018 526.138 585.884 526.023C585.739 525.894 585.65 525.713 585.636 525.52C585.623 525.326 585.685 525.135 585.811 524.987C586.161 524.578 594.79 515.059 615.011 517.584C615.202 517.61 615.376 517.71 615.493 517.864C615.611 518.017 615.663 518.21 615.638 518.402C615.613 518.595 615.513 518.77 615.36 518.89C615.208 519.01 615.014 519.065 614.821 519.044C595.403 516.606 586.979 525.863 586.891 525.95C586.825 526.025 586.744 526.085 586.653 526.128C586.563 526.17 586.465 526.194 586.365 526.198Z" fill="white"/>
<path d="M478.179 639.159L289.313 530.111C275.984 522.417 265.18 501.773 265.18 484.005V79.5847C265.18 61.8165 275.984 53.6551 289.313 61.3493L478.179 170.397C491.509 178.091 502.313 198.735 502.313 216.503V620.923C502.313 638.677 491.509 646.853 478.179 639.159Z" fill="#455A64"/>
<path d="M499.933 157.68L311.053 48.6327C305.359 45.3477 300.132 44.9681 296 46.9829C295.495 47.2362 295.007 47.524 294.54 47.8443L273.37 60.1521C277.634 57.5971 283.211 57.7869 289.328 61.3201L478.194 170.368C491.524 178.062 502.328 198.706 502.328 216.474V620.894C502.328 630.297 499.305 636.954 494.487 640.108L515.38 627.946C520.709 625.114 524.14 618.179 524.14 608.236V203.816C524.14 186.019 513.263 165.374 499.933 157.68Z" fill="#37474F"/>
<path d="M502.313 216.474V620.894C502.313 630.297 499.291 636.954 494.473 640.108L515.38 627.946C520.709 625.114 524.14 618.179 524.14 608.236V203.816L502.386 216.445L502.313 216.474Z" fill="#263238"/>
<path d="M524.067 235.191L502.313 247.747V257.559L524.067 244.988V235.191Z" fill="#37474F"/>
<path d="M514.533 300.439C512.591 301.563 511.014 300.366 511.014 297.782V276.685C511.034 275.366 511.363 274.07 511.974 272.901C512.585 271.732 513.461 270.723 514.533 269.954C516.475 268.83 518.052 269.954 518.052 272.611V293.708C518.032 295.027 517.703 296.323 517.092 297.492C516.481 298.661 515.605 299.67 514.533 300.439Z" fill="#37474F"/>
<path d="M511 297.84V276.685C511.02 275.366 511.348 274.07 511.959 272.901C512.57 271.732 513.447 270.723 514.518 269.954C514.839 269.73 515.212 269.593 515.601 269.558C515.99 269.522 516.382 269.588 516.738 269.75L514.095 268.392C513.734 268.218 513.333 268.142 512.933 268.173C512.533 268.204 512.148 268.34 511.817 268.567C510.745 269.336 509.867 270.345 509.253 271.514C508.64 272.682 508.308 273.978 508.284 275.298V296.38C508.229 296.913 508.31 297.45 508.52 297.943C508.729 298.436 509.06 298.868 509.481 299.198L512.241 300.658C511.802 300.341 511.455 299.913 511.237 299.418C511.019 298.922 510.937 298.378 511 297.84Z" fill="#455A64"/>
<path d="M514.533 351.495C512.591 352.619 511.014 351.495 511.014 348.838V327.741C511.035 326.422 511.364 325.127 511.975 323.958C512.586 322.79 513.462 321.78 514.533 321.01C516.475 319.886 518.052 321.01 518.052 323.682V344.765C518.034 346.084 517.707 347.38 517.095 348.55C516.484 349.719 515.606 350.728 514.533 351.495Z" fill="#37474F"/>
<path d="M511 348.838V327.741C511.021 326.422 511.35 325.127 511.961 323.958C512.572 322.789 513.448 321.78 514.518 321.01C514.84 320.79 515.213 320.656 515.602 320.62C515.99 320.584 516.381 320.648 516.738 320.806L514.095 319.433C513.736 319.252 513.333 319.172 512.932 319.203C512.53 319.234 512.145 319.374 511.817 319.609C510.742 320.375 509.862 321.384 509.249 322.553C508.635 323.722 508.304 325.019 508.284 326.339V347.48C508.228 348.013 508.308 348.551 508.518 349.044C508.727 349.537 509.059 349.968 509.481 350.298L512.241 351.758C511.784 351.434 511.425 350.989 511.206 350.474C510.987 349.958 510.916 349.392 511 348.838Z" fill="#455A64"/>
<path d="M471.58 181.741L285.985 74.5478C285.21 74.1022 284.333 73.8669 283.439 73.8652C282.545 73.8636 281.667 74.0956 280.891 74.5384C280.114 74.9811 279.467 75.6191 279.014 76.3891C278.56 77.1591 278.316 78.0343 278.305 78.9278V484.005C278.305 497.524 287.897 514.125 299.607 520.884L480.647 625.464C481.505 625.958 482.479 626.218 483.469 626.217C484.46 626.216 485.433 625.955 486.29 625.46C487.148 624.964 487.861 624.252 488.356 623.394C488.852 622.537 489.113 621.564 489.115 620.573V212.153C489.188 200.998 481.274 187.318 471.58 181.741Z" fill="#407BFF"/>
<path opacity="0.9" d="M471.58 181.741L285.985 74.5478C285.21 74.1022 284.333 73.8669 283.439 73.8652C282.545 73.8636 281.667 74.0956 280.891 74.5384C280.114 74.9811 279.467 75.6191 279.014 76.3891C278.56 77.1591 278.316 78.0343 278.305 78.9278V484.005C278.305 497.524 287.897 514.125 299.607 520.884L480.647 625.464C481.505 625.958 482.479 626.218 483.469 626.217C484.46 626.216 485.433 625.955 486.29 625.46C487.148 624.964 487.861 624.252 488.356 623.394C488.852 622.537 489.113 621.564 489.115 620.573V212.153C489.188 200.998 481.274 187.318 471.58 181.741Z" fill="white"/>
<path d="M341.494 102.536L344.37 114.639L405.895 150.117L416.523 144.452L341.494 102.536Z" fill="#455A64"/>
<path d="M359.583 114.23C359.583 116.245 358.123 117.048 356.43 116.055C355.52 115.452 354.765 114.643 354.225 113.695C353.685 112.747 353.375 111.685 353.32 110.595C353.32 108.595 354.78 107.777 356.473 108.785C357.382 109.385 358.137 110.191 358.678 111.137C359.218 112.083 359.528 113.143 359.583 114.23Z" fill="#263238"/>
<path d="M401.033 139.854C400.696 139.851 400.365 139.766 400.069 139.605L368.65 122.085C368.206 121.825 367.882 121.401 367.747 120.905C367.611 120.409 367.675 119.879 367.925 119.429C368.174 118.979 368.59 118.645 369.083 118.498C369.576 118.35 370.107 118.401 370.562 118.64L401.996 136.16C402.378 136.372 402.679 136.706 402.851 137.107C403.023 137.509 403.056 137.957 402.946 138.38C402.836 138.803 402.588 139.177 402.241 139.444C401.895 139.711 401.47 139.855 401.033 139.854Z" fill="#263238"/>
<path d="M317.229 158.848C315.316 157.739 313.929 158.702 313.929 161.14C313.929 162.36 314.23 163.56 314.806 164.635C315.382 165.71 316.214 166.626 317.229 167.302C317.772 167.632 318.396 167.806 319.032 167.806C319.668 167.806 320.291 167.632 320.835 167.302L323.886 172.82C322.813 173.413 321.596 173.695 320.371 173.636C319.147 173.576 317.962 173.178 316.951 172.485C314.472 170.968 312.405 168.864 310.933 166.358C309.462 163.852 308.63 161.022 308.512 158.118C308.512 152.702 312.148 150.818 317.156 153.738C319.984 155.559 322.3 158.072 323.886 161.038L320.835 163.462C320.082 161.62 318.834 160.023 317.229 158.848Z" fill="#407BFF"/>
<path d="M341.45 177.142C341.45 182.602 337.756 184.442 332.69 181.522C330.14 179.998 328.007 177.868 326.478 175.321C324.95 172.774 324.075 169.889 323.93 166.922C323.93 161.462 327.624 159.622 332.69 162.542C335.246 164.059 337.385 166.187 338.914 168.736C340.443 171.284 341.315 174.173 341.45 177.142ZM329.347 170.178C329.372 171.431 329.695 172.661 330.289 173.765C330.883 174.869 331.731 175.817 332.763 176.529C334.574 177.58 336.034 176.529 336.034 174.047C336.029 172.821 335.729 171.615 335.16 170.53C334.59 169.445 333.769 168.513 332.763 167.813C330.924 166.747 329.347 167.652 329.347 170.178Z" fill="#407BFF"/>
<path d="M347.334 171.346L353.641 184.486V175.025L358.415 177.784V196.195L354.035 193.654L347.757 180.631V190.034L342.954 187.26V168.805L347.334 171.346Z" fill="#407BFF"/>
<path d="M374.023 186.749V191.567L369.467 188.939V202.546L364.197 199.494V185.887L359.671 183.274V178.47L374.023 186.749Z" fill="#407BFF"/>
<path d="M384.301 208.503L378.315 205.043L377.497 207.174L372.095 204.05L378.826 189.523L384.243 192.647L390.725 214.81L385.104 211.569L384.301 208.503ZM383.002 203.393L381.366 197.1L379.687 201.48L383.002 203.393Z" fill="#407BFF"/>
<path d="M399.091 206.108C397.178 205.013 395.791 205.962 395.791 208.415C395.794 209.634 396.096 210.833 396.672 211.908C397.247 212.982 398.078 213.899 399.091 214.576C399.638 214.903 400.264 215.075 400.901 215.075C401.539 215.075 402.164 214.903 402.712 214.576L405.763 220.095C404.685 220.681 403.467 220.959 402.241 220.9C401.016 220.84 399.83 220.446 398.814 219.759C396.333 218.241 394.264 216.135 392.792 213.626C391.32 211.117 390.49 208.284 390.375 205.378C390.375 199.962 394.025 198.078 399.018 200.998C401.842 202.828 404.162 205.338 405.763 208.298L402.712 210.707C401.943 208.875 400.691 207.286 399.091 206.108Z" fill="#407BFF"/>
<path d="M420.159 213.394V218.197L415.603 215.569V229.22L410.333 226.169V212.562L405.807 209.948V205.145L420.159 213.394Z" fill="#407BFF"/>
<path d="M435.737 235.994C437.036 236.739 438.029 236.155 438.029 234.33V223.716L443.314 226.753V237.367C443.314 242.258 440.394 243.718 435.722 241.046C433.471 239.796 431.579 237.989 430.227 235.798C428.875 233.608 428.107 231.106 427.999 228.534V217.92L433.284 220.971V231.585C433.304 232.464 433.538 233.325 433.966 234.093C434.393 234.861 435.001 235.514 435.737 235.994Z" fill="#407BFF"/>
<path d="M451.826 236.053C451.227 235.717 450.848 235.702 450.848 236.257C450.848 238.564 459.097 241.893 459.097 248.565C459.097 252.653 455.987 252.668 452.395 250.594C449.238 248.66 446.519 246.089 444.409 243.046L446.366 239.601C447.971 242.086 450.032 244.246 452.439 245.966C453.213 246.419 453.709 246.419 453.709 245.762C453.709 243.367 445.446 240.185 445.446 233.717C445.446 230.038 448.132 229.337 452.279 231.673C454.95 233.288 457.3 235.382 459.214 237.849L457.301 241.382C455.721 239.37 453.88 237.578 451.826 236.053Z" fill="#407BFF"/>
<path d="M290.671 249.572C296.595 242.297 299.577 233.065 299.029 223.699C298.481 214.332 294.442 205.512 287.709 198.977C280.977 192.442 272.04 188.668 262.661 188.399C253.283 188.13 244.144 191.385 237.048 197.523C229.952 203.661 225.414 212.236 224.33 221.555C223.245 230.875 225.693 240.262 231.19 247.866C236.687 255.469 244.834 260.736 254.023 262.628C263.213 264.52 272.778 262.898 280.831 258.084L299.11 266.027L290.671 249.572Z" fill="#407BFF"/>
<path opacity="0.4" d="M290.671 249.572C296.595 242.297 299.577 233.065 299.029 223.699C298.481 214.332 294.442 205.512 287.709 198.977C280.977 192.442 272.04 188.668 262.661 188.399C253.283 188.13 244.144 191.385 237.048 197.523C229.952 203.661 225.414 212.236 224.33 221.555C223.245 230.875 225.693 240.262 231.19 247.866C236.687 255.469 244.834 260.736 254.023 262.628C263.213 264.52 272.778 262.898 280.831 258.084L299.11 266.027L290.671 249.572Z" fill="black"/>
<path d="M462.002 362.898V544.303C462.005 546.354 461.468 548.371 460.444 550.149C459.42 551.927 457.946 553.404 456.17 554.431C454.394 555.458 452.378 555.999 450.327 556C448.275 556.001 446.259 555.461 444.482 554.435L346.779 498.021L329.464 488.034C323.501 484.587 318.548 479.634 315.099 473.672C311.651 467.71 309.828 460.947 309.812 454.06V272.64C309.809 270.589 310.346 268.572 311.37 266.794C312.394 265.016 313.868 263.539 315.645 262.512C317.421 261.485 319.436 260.944 321.488 260.943C323.539 260.942 325.555 261.482 327.332 262.508L442.38 328.923C448.345 332.366 453.299 337.317 456.743 343.281C460.188 349.245 462.002 356.011 462.002 362.898Z" fill="#407BFF"/>
<path opacity="0.5" d="M462.002 362.898V544.303C462.005 546.354 461.468 548.371 460.444 550.149C459.42 551.927 457.946 553.404 456.17 554.431C454.394 555.458 452.378 555.999 450.327 556C448.275 556.001 446.259 555.461 444.482 554.435L346.779 498.021L329.464 488.034C323.501 484.587 318.548 479.634 315.099 473.672C311.651 467.71 309.828 460.947 309.812 454.06V272.64C309.809 270.589 310.346 268.572 311.37 266.794C312.394 265.016 313.868 263.539 315.645 262.512C317.421 261.485 319.436 260.944 321.488 260.943C323.539 260.942 325.555 261.482 327.332 262.508L442.38 328.923C448.345 332.366 453.299 337.317 456.743 343.281C460.188 349.245 462.002 356.011 462.002 362.898Z" fill="white"/>
<path d="M405.719 470.237C405.719 470.237 424.013 500.576 410.8 534.783L346.735 498.021L405.719 470.237Z" fill="#263238"/>
<path d="M434.894 333.927C436.278 322.683 428.286 312.446 417.042 311.061C405.798 309.676 395.56 317.669 394.175 328.913C392.791 340.157 400.784 350.395 412.028 351.779C423.272 353.164 433.509 345.171 434.894 333.927Z" fill="#263238"/>
<path d="M414.64 273.881C414.64 273.881 420.933 263.661 422.86 264.406C424.787 265.151 421.604 274.889 421.604 274.889C421.604 274.889 431.124 276.874 429.357 279.269C427.59 281.663 415.954 281.094 415.954 281.094L414.64 273.881Z" fill="#263238"/>
<path d="M419.02 300.22C414.64 333.128 386.9 333.128 386.9 333.128L328.792 307.549C328.792 307.549 324.412 303.709 323.069 294.891C322.554 291.279 322.554 287.611 323.069 283.999C323.069 283.999 323.069 283.926 323.069 283.897C324.923 270.056 335.274 255.179 357.817 250.609C362.757 249.612 367.786 249.122 372.826 249.149C375.264 249.14 377.701 249.262 380.126 249.514C397.646 251.237 409.924 259.413 415.779 272.129C417.096 275 418.076 278.013 418.699 281.108C419.887 287.415 419.996 293.877 419.02 300.22Z" fill="#263238"/>
<path d="M279.517 363.876C279.517 363.876 258.887 363.16 250.945 383.265C250.945 383.265 259.705 389.178 271.195 383.265C282.685 377.352 279.517 363.876 279.517 363.876Z" fill="#407BFF"/>
<path opacity="0.5" d="M279.517 363.876C279.517 363.876 258.887 363.16 250.945 383.265C250.945 383.265 259.705 389.178 271.195 383.265C282.685 377.352 279.517 363.876 279.517 363.876Z" fill="black"/>
<path d="M278.933 373.556C278.933 373.556 273.093 348.181 270.012 347.874C266.932 347.568 266.333 355.612 266.581 360.153L259.281 344.443C259.05 343.955 258.721 343.519 258.314 343.163C257.908 342.807 257.433 342.538 256.919 342.373C256.404 342.207 255.862 342.149 255.324 342.201C254.786 342.253 254.265 342.415 253.792 342.677C246.492 346.692 233.688 358.897 260.683 389.075L278.933 373.556Z" fill="#945959"/>
<path d="M353.685 356.006L349.305 355.437C344.891 354.852 340.401 355.452 336.295 357.176C332.19 358.9 328.617 361.686 325.945 365.248L299.884 399.938L279.444 363.876C279.444 363.876 276.991 388.404 250.872 383.264L278.918 430.466C280.693 433.454 283.164 435.97 286.12 437.798C289.076 439.626 292.429 440.714 295.896 440.967C299.362 441.221 302.838 440.634 306.029 439.255C309.22 437.877 312.03 435.748 314.221 433.05L338.224 403.544L353.685 356.006Z" fill="#407BFF"/>
<path d="M409.311 436.963C403.471 451.768 402.829 454.659 406.391 462.061C408.872 467.528 410.827 473.218 412.231 479.055C412.231 479.055 385.163 509.394 346.633 498.035L329.318 488.049C325.716 485.972 322.473 483.33 319.711 480.223L324.981 440.92C325.247 438.851 325.037 436.749 324.368 434.773L318.835 418.553C316.135 410.63 315.733 402.105 317.676 393.964C319.619 385.822 323.827 378.397 329.814 372.548L348.414 354.371L397.266 360.62L404.566 362.708C409.345 364.09 413.465 367.15 416.168 371.326C418.872 375.502 419.978 380.514 419.283 385.44C416.888 402.668 412.976 427.663 409.311 436.963Z" fill="#407BFF"/>
<path opacity="0.5" d="M409.311 436.963C403.471 451.768 402.829 454.659 406.391 462.061C408.872 467.528 410.827 473.218 412.231 479.055C412.231 479.055 385.163 509.394 346.633 498.035L329.318 488.049C325.716 485.972 322.473 483.33 319.711 480.223L324.981 440.92C325.247 438.851 325.037 436.749 324.368 434.773L318.835 418.553C316.135 410.63 315.733 402.105 317.676 393.964C319.619 385.822 323.827 378.397 329.814 372.548L348.414 354.371L397.266 360.62L404.566 362.708C409.345 364.09 413.465 367.15 416.168 371.326C418.872 375.502 419.978 380.514 419.283 385.44C416.888 402.668 412.976 427.663 409.311 436.963Z" fill="black"/>
<path d="M379.848 392.74L370.066 384.403C369.03 383.517 367.781 382.916 366.442 382.66C365.103 382.404 363.72 382.502 362.43 382.943L350.604 387.017L349.013 380.388C348.765 379.357 348.31 378.387 347.676 377.536C347.043 376.685 346.244 375.972 345.327 375.438C344.41 374.905 343.395 374.563 342.342 374.432C341.289 374.302 340.221 374.386 339.202 374.68L334.077 376.14L342.75 359.525C345.581 354.114 349.943 349.656 355.291 346.706L358.693 344.837L386.798 346.297C386.798 346.297 397.266 350.677 397.266 360.532L379.848 392.652" fill="#407BFF"/>
<path d="M386.915 358.751L358.737 380.709V310.79H386.915V358.751Z" fill="#945959"/>
<path d="M359.175 352.984L350.604 387.075L386.798 358.751L359.175 352.984Z" fill="#945959"/>
<path d="M358.737 347.918C365.002 345.591 370.73 342.015 375.571 337.407C380.413 332.799 384.267 327.256 386.9 321.112V310.79H358.722L358.737 347.918Z" fill="#703838"/>
<path d="M364.81 258.975C354.123 258.975 331.405 264.932 328.777 292.905C326.149 320.879 328.69 342.545 343.115 344.648C357.539 346.75 391.061 336.282 395.558 300.074C400.055 263.866 375.22 258.975 364.81 258.975Z" fill="#945959"/>
<path d="M347.991 304.746V321.229L338.326 318.265L347.991 304.746Z" fill="#703838"/>
<path d="M358.737 310.951C360.591 310.951 362.095 309.447 362.095 307.593C362.095 305.738 360.591 304.235 358.737 304.235C356.882 304.235 355.379 305.738 355.379 307.593C355.379 309.447 356.882 310.951 358.737 310.951Z" fill="#263238"/>
<path d="M339.99 305.257C339.987 305.92 339.788 306.568 339.417 307.118C339.046 307.669 338.521 308.097 337.907 308.349C337.293 308.601 336.619 308.665 335.968 308.534C335.318 308.403 334.721 308.082 334.253 307.611C333.784 307.141 333.466 306.543 333.338 305.892C333.209 305.241 333.277 304.566 333.531 303.954C333.786 303.341 334.216 302.817 334.768 302.449C335.32 302.081 335.969 301.884 336.632 301.884C337.074 301.884 337.512 301.971 337.921 302.141C338.329 302.311 338.7 302.559 339.012 302.873C339.324 303.186 339.571 303.558 339.739 303.967C339.907 304.376 339.992 304.814 339.99 305.257Z" fill="#263238"/>
<path d="M332.53 298.249L339.1 294.351C339.1 294.351 336.588 291.737 334.077 293.299C331.566 294.862 332.53 298.249 332.53 298.249Z" fill="#263238"/>
<path d="M343.45 327.916C346.65 328.15 349.835 327.296 352.488 325.492C352.488 325.492 353.116 330.267 349.115 331.172C345.115 332.077 343.45 327.916 343.45 327.916Z" fill="#703838"/>
<path d="M337.713 268.494C337.713 268.494 341.728 307.111 394.244 308.323C394.244 308.323 410.114 269.939 378.753 257.471C347.392 245.003 337.713 268.494 337.713 268.494Z" fill="#263238"/>
<path d="M409.705 302.541L403.252 298.804C400.799 297.344 397.412 297.548 393.66 299.709C386.214 304.001 380.169 314.469 380.169 323.069C380.169 327.376 381.629 330.369 384.141 331.829L390.477 335.479L390.842 335.683L391.061 335.815C393.455 336.983 396.653 336.705 400.171 334.676C407.617 330.296 413.662 319.915 413.662 311.316C413.618 306.965 412.114 303.957 409.705 302.541Z" fill="#407BFF"/>
<path d="M409.654 324.532C414.92 315.412 414.92 305.554 409.654 302.515C404.389 299.475 395.852 304.403 390.587 313.523C385.322 322.643 385.322 332.501 390.587 335.541C395.852 338.58 404.389 333.652 409.654 324.532Z" fill="#407BFF"/>
<path opacity="0.5" d="M409.654 324.532C414.92 315.412 414.92 305.554 409.654 302.515C404.389 299.475 395.852 304.403 390.587 313.523C385.322 322.643 385.322 332.501 390.587 335.541C395.852 338.58 404.389 333.652 409.654 324.532Z" fill="black"/>
<path d="M412.289 310.644L407.909 308.089C406.245 307.096 403.924 307.228 401.354 308.702C398.67 310.456 396.436 312.818 394.833 315.595C393.23 318.372 392.303 321.487 392.127 324.689C392.127 327.609 393.163 329.697 394.842 330.661L399.222 333.157C399.3 333.214 399.383 333.263 399.471 333.303L399.617 333.391C400.643 333.78 401.75 333.912 402.839 333.775C403.928 333.637 404.968 333.235 405.865 332.602C408.548 330.85 410.78 328.491 412.383 325.716C413.986 322.942 414.914 319.829 415.093 316.63C414.976 313.666 413.954 311.608 412.289 310.644Z" fill="#407BFF"/>
<path d="M414.976 316.601C414.797 319.8 413.869 322.913 412.266 325.687C410.664 328.462 408.431 330.82 405.749 332.573C400.639 335.493 396.507 333.128 396.507 327.244C396.68 324.042 397.607 320.926 399.214 318.15C400.82 315.375 403.059 313.018 405.749 311.272C410.844 308.323 414.976 310.702 414.976 316.601Z" fill="#407BFF"/>
<path opacity="0.3" d="M414.976 316.601C414.797 319.8 413.869 322.913 412.266 325.687C410.664 328.462 408.431 330.82 405.749 332.573C400.639 335.493 396.507 333.128 396.507 327.244C396.68 324.042 397.607 320.926 399.214 318.15C400.82 315.375 403.059 313.018 405.749 311.272C410.844 308.323 414.976 310.702 414.976 316.601Z" fill="black"/>
<path d="M389.659 251.441C385.474 248.208 380.348 246.43 375.059 246.375H373.76C368.405 246.317 363.058 246.806 357.802 247.835C358.766 247.835 359.729 247.835 360.722 247.835H357.802V250.551H360.518C369.877 250.869 378.745 254.814 385.249 261.552C391.752 268.289 395.381 277.292 395.368 286.656V298.147C395.368 298.601 395.463 299.05 395.647 299.465C395.831 299.88 396.101 300.252 396.438 300.556C396.776 300.86 397.173 301.09 397.605 301.231C398.037 301.372 398.493 301.42 398.945 301.373H399.281L402.201 300.468C402.006 300.529 401.806 300.568 401.602 300.585C402.473 300.467 403.269 300.032 403.84 299.364C404.411 298.697 404.716 297.842 404.697 296.964V286.306C404.668 267.019 396.332 256.653 389.659 251.441Z" fill="#407BFF"/>
<path d="M371.278 343.845C370.074 343.845 368.884 343.586 367.789 343.085L358.664 338.866C358.521 338.815 358.39 338.735 358.28 338.631C358.17 338.527 358.083 338.401 358.024 338.261C357.965 338.122 357.935 337.971 357.937 337.82C357.939 337.668 357.973 337.519 358.036 337.381C358.099 337.243 358.19 337.119 358.303 337.018C358.416 336.917 358.548 336.841 358.693 336.794C358.837 336.747 358.989 336.73 359.14 336.745C359.291 336.76 359.437 336.806 359.569 336.88L368.694 341.1C369.858 341.641 371.161 341.805 372.423 341.57C373.685 341.334 374.841 340.71 375.731 339.786L384.491 330.734C384.696 330.529 384.975 330.414 385.265 330.414C385.555 330.414 385.833 330.529 386.039 330.734C386.24 330.941 386.353 331.219 386.353 331.508C386.353 331.797 386.24 332.074 386.039 332.281L377.279 341.333C376.499 342.134 375.565 342.769 374.534 343.201C373.503 343.632 372.396 343.851 371.278 343.845Z" fill="#407BFF"/>
<path opacity="0.5" d="M371.278 343.845C370.074 343.845 368.884 343.586 367.789 343.085L358.664 338.866C358.521 338.815 358.39 338.735 358.28 338.631C358.17 338.527 358.083 338.401 358.024 338.261C357.965 338.122 357.935 337.971 357.937 337.82C357.939 337.668 357.973 337.519 358.036 337.381C358.099 337.243 358.19 337.119 358.303 337.018C358.416 336.917 358.548 336.841 358.693 336.794C358.837 336.747 358.989 336.73 359.14 336.745C359.291 336.76 359.437 336.806 359.569 336.88L368.694 341.1C369.858 341.641 371.161 341.805 372.423 341.57C373.685 341.334 374.841 340.71 375.731 339.786L384.491 330.734C384.696 330.529 384.975 330.414 385.265 330.414C385.555 330.414 385.833 330.529 386.039 330.734C386.24 330.941 386.353 331.219 386.353 331.508C386.353 331.797 386.24 332.074 386.039 332.281L377.279 341.333C376.499 342.134 375.565 342.769 374.534 343.201C373.503 343.632 372.396 343.851 371.278 343.845Z" fill="black"/>
<path d="M361.058 335.8C361.058 336.643 360.808 337.467 360.34 338.168C359.871 338.869 359.205 339.416 358.426 339.738C357.647 340.061 356.79 340.146 355.963 339.981C355.136 339.817 354.377 339.411 353.78 338.814C353.184 338.218 352.778 337.458 352.614 336.632C352.449 335.805 352.534 334.947 352.856 334.168C353.179 333.389 353.725 332.724 354.426 332.255C355.128 331.787 355.952 331.537 356.795 331.537C357.926 331.537 359.01 331.986 359.809 332.785C360.609 333.585 361.058 334.669 361.058 335.8Z" fill="#407BFF"/>
<path opacity="0.5" d="M361.058 335.8C361.058 336.643 360.808 337.467 360.34 338.168C359.871 338.869 359.205 339.416 358.426 339.738C357.647 340.061 356.79 340.146 355.963 339.981C355.136 339.817 354.377 339.411 353.78 338.814C353.184 338.218 352.778 337.458 352.614 336.632C352.449 335.805 352.534 334.947 352.856 334.168C353.179 333.389 353.725 332.724 354.426 332.255C355.128 331.787 355.952 331.537 356.795 331.537C357.926 331.537 359.01 331.986 359.809 332.785C360.609 333.585 361.058 334.669 361.058 335.8Z" fill="black"/>
<path d="M404.668 286.306V296.964C404.687 297.842 404.382 298.697 403.811 299.364C403.24 300.032 402.444 300.467 401.573 300.585C401.092 300.636 400.606 300.585 400.146 300.436C399.686 300.287 399.262 300.043 398.903 299.719C398.543 299.395 398.256 299 398.059 298.558C397.863 298.116 397.762 297.637 397.762 297.154V286.306C397.771 281.129 396.732 276.003 394.707 271.238C392.683 266.473 389.716 262.167 385.984 258.578C382.252 254.989 377.833 252.193 372.993 250.357C368.152 248.521 362.99 247.683 357.817 247.893C363.073 246.865 368.42 246.376 373.775 246.433H375.045C380.333 246.488 385.459 248.267 389.645 251.499C396.332 256.653 404.668 267.019 404.668 286.306Z" fill="#407BFF"/>
<path opacity="0.5" d="M404.668 286.306V296.964C404.687 297.842 404.382 298.697 403.811 299.364C403.24 300.032 402.444 300.467 401.573 300.585C401.092 300.636 400.606 300.585 400.146 300.436C399.686 300.287 399.262 300.043 398.903 299.719C398.543 299.395 398.256 299 398.059 298.558C397.863 298.116 397.762 297.637 397.762 297.154V286.306C397.771 281.129 396.732 276.003 394.707 271.238C392.683 266.473 389.716 262.167 385.984 258.578C382.252 254.989 377.833 252.193 372.993 250.357C368.152 248.521 362.99 247.683 357.817 247.893C363.073 246.865 368.42 246.376 373.775 246.433H375.045C380.333 246.488 385.459 248.267 389.645 251.499C396.332 256.653 404.668 267.019 404.668 286.306Z" fill="black"/>
<path d="M388.258 487.158C388.258 487.158 381.191 506.62 406.449 515.38C406.449 515.38 414.698 503.262 406.449 493.349C398.2 483.435 388.258 487.158 388.258 487.158Z" fill="#407BFF"/>
<path opacity="0.7" d="M388.258 487.158C388.258 487.158 381.191 506.62 406.449 515.38C406.449 515.38 414.698 503.262 406.449 493.349C398.2 483.435 388.258 487.158 388.258 487.158Z" fill="black"/>
<path d="M397.12 488.049C397.12 488.049 372.446 497.086 372.577 500.59C372.709 504.094 383.06 501.7 383.06 501.7L379.279 504.182C375.297 506.78 372.213 510.542 370.446 514.957C370.061 515.93 370.047 517.011 370.408 517.994C370.769 518.977 371.479 519.793 372.402 520.286L381.775 525.25C382.305 525.53 382.885 525.702 383.482 525.755C384.079 525.808 384.68 525.74 385.251 525.556C385.821 525.373 386.349 525.076 386.802 524.685C387.256 524.294 387.627 523.816 387.893 523.279C388.415 522.246 389.137 521.328 390.017 520.576C390.897 519.824 391.916 519.254 393.017 518.899C398.113 517.205 407.617 512.329 411.428 498.984L397.12 488.049Z" fill="#945959"/>
<path d="M404.522 362.678C404.522 362.678 391.382 369.978 398.361 392.141C405.34 414.304 418.436 448.687 418.436 448.687L388.258 487.158C391.482 487.547 394.588 488.611 397.373 490.282C400.158 491.952 402.559 494.191 404.42 496.852C406.203 499.559 407.317 502.65 407.669 505.871C408.022 509.093 407.604 512.352 406.449 515.38L443.913 467.2C447.378 462.747 449.678 457.502 450.606 451.937C451.534 446.372 451.06 440.664 449.227 435.328L433.167 388.433C431.204 382.704 427.942 377.508 423.636 373.25C419.33 368.993 414.098 365.789 408.347 363.89L404.522 362.678Z" fill="#407BFF"/>
<path d="M182.719 231.76L124.655 198.18C123.987 197.717 123.214 197.428 122.405 197.339C121.597 197.25 120.78 197.363 120.027 197.669C119.868 197.743 119.716 197.831 119.574 197.932L106.945 205.334H107.033C105.441 206.24 104.434 208.342 104.434 211.35V275.94C104.434 281.4 107.748 287.751 111.851 290.117L169.915 323.697C170.652 324.23 171.529 324.534 172.437 324.573C173.345 324.612 174.245 324.384 175.025 323.916C174.985 323.931 174.95 323.956 174.923 323.989L187.464 316.689C189.099 315.813 190.136 313.681 190.136 310.63V245.937C190.136 240.477 186.88 234.126 182.719 231.76Z" fill="#407BFF"/>
<path d="M188.063 237.878C186.888 235.38 185.037 233.26 182.719 231.76L124.655 198.18C123.987 197.717 123.214 197.428 122.405 197.339C121.597 197.25 120.78 197.363 120.027 197.669C119.868 197.743 119.716 197.831 119.574 197.932L106.945 205.334C107.718 204.94 108.584 204.765 109.449 204.829C110.314 204.894 111.145 205.195 111.851 205.699L169.915 239.279C172.311 240.846 174.211 243.065 175.39 245.674L188.063 237.878Z" fill="#407BFF"/>
<path d="M177.332 318.017C177.332 320.937 176.397 322.967 174.923 323.857L187.464 316.557C189.099 315.681 190.136 313.55 190.136 310.498V245.937C190.074 243.127 189.365 240.369 188.063 237.878L175.39 245.674C176.607 248.092 177.27 250.75 177.332 253.456V318.017Z" fill="#407BFF"/>
<path opacity="0.3" d="M188.063 237.878C186.888 235.38 185.037 233.26 182.719 231.76L124.655 198.18C123.987 197.717 123.214 197.428 122.405 197.339C121.597 197.25 120.78 197.363 120.027 197.669C119.868 197.743 119.716 197.831 119.574 197.932L106.945 205.334C107.718 204.94 108.584 204.765 109.449 204.829C110.314 204.894 111.145 205.195 111.851 205.699L169.915 239.279C172.311 240.846 174.211 243.065 175.39 245.674L188.063 237.878Z" fill="black"/>
<path opacity="0.6" d="M177.332 318.017C177.332 320.937 176.397 322.967 174.923 323.857L187.464 316.557C189.099 315.681 190.136 313.55 190.136 310.498V245.937C190.074 243.127 189.365 240.369 188.063 237.878L175.39 245.674C176.607 248.092 177.27 250.75 177.332 253.456V318.017Z" fill="black"/>
<path d="M160.308 271.954C160.308 280.32 156.994 283.167 152.03 280.291C150.661 279.511 149.463 278.463 148.51 277.208C147.556 275.953 146.866 274.519 146.482 272.991C145.022 274.787 142.759 274.903 139.576 273.064C134.349 270.042 130.232 262.844 130.232 255.85C130.232 248.857 134.306 246.448 139.576 249.485C142.251 251.061 144.411 253.379 145.796 256.157V253.398L151.3 256.58V271.706C151.218 272.502 151.356 273.305 151.698 274.028C152.04 274.752 152.574 275.367 153.242 275.809C155.096 276.889 156.235 275.064 156.235 269.647C156.235 260.172 150.161 250.127 141.182 244.944C132.203 239.761 126.144 243.367 126.144 253.12C126.262 258.295 127.688 263.356 130.289 267.832C132.891 272.307 136.583 276.051 141.022 278.714C143.432 280.199 146.168 281.071 148.993 281.254L150.293 286.291C147.004 286.026 143.825 284.98 141.022 283.24C129.342 276.48 121.618 262.873 121.618 250.551C121.618 238.228 129.415 233.761 141.182 240.564C152.556 247.12 160.308 260.245 160.308 271.954ZM145.883 264.932C145.912 263.08 145.46 261.253 144.572 259.628C143.684 258.004 142.391 256.637 140.817 255.661C137.897 253.952 135.809 255.15 135.809 259.121C135.772 260.975 136.213 262.808 137.09 264.442C137.967 266.076 139.251 267.457 140.817 268.45C143.737 270.1 145.883 269.034 145.883 264.932Z" fill="#407BFF"/>
<g opacity="0.9">
<path d="M160.308 271.954C160.308 280.32 156.994 283.167 152.03 280.291C150.661 279.511 149.463 278.463 148.51 277.208C147.556 275.953 146.866 274.519 146.482 272.991C145.022 274.787 142.759 274.903 139.576 273.064C134.349 270.042 130.232 262.844 130.232 255.85C130.232 248.857 134.306 246.448 139.576 249.485C142.251 251.061 144.411 253.379 145.796 256.157V253.398L151.3 256.58V271.706C151.218 272.502 151.356 273.305 151.698 274.028C152.04 274.752 152.574 275.367 153.242 275.809C155.096 276.889 156.235 275.064 156.235 269.647C156.235 260.172 150.161 250.127 141.182 244.944C132.203 239.761 126.144 243.367 126.144 253.12C126.262 258.295 127.688 263.356 130.289 267.832C132.891 272.307 136.583 276.051 141.022 278.714C143.432 280.199 146.168 281.071 148.993 281.254L150.293 286.291C147.004 286.026 143.825 284.98 141.022 283.24C129.342 276.48 121.618 262.873 121.618 250.551C121.618 238.228 129.415 233.761 141.182 240.564C152.556 247.12 160.308 260.245 160.308 271.954ZM145.883 264.932C145.912 263.08 145.46 261.253 144.572 259.628C143.684 258.004 142.391 256.637 140.817 255.661C137.897 253.952 135.809 255.15 135.809 259.121C135.772 260.975 136.213 262.808 137.09 264.442C137.967 266.076 139.251 267.457 140.817 268.45C143.737 270.1 145.883 269.034 145.883 264.932Z" fill="white"/>
</g>
<path d="M182.719 346.779L124.655 313.199C123.988 312.734 123.214 312.444 122.404 312.357C121.595 312.27 120.777 312.389 120.027 312.703C119.868 312.776 119.716 312.864 119.574 312.966L106.945 320.368H107.033C105.441 321.273 104.434 323.375 104.434 326.368V390.93C104.434 396.405 107.748 402.741 111.851 405.106L169.915 438.686C170.65 439.223 171.527 439.53 172.437 439.569C173.346 439.608 174.246 439.377 175.025 438.905L174.923 438.993L187.464 431.62C189.099 430.758 190.136 428.7 190.136 425.561V360.941C190.136 355.481 186.88 349.144 182.719 346.779Z" fill="#407BFF"/>
<path d="M188.063 352.897C186.892 350.396 185.04 348.276 182.719 346.779L124.655 313.199C123.988 312.734 123.214 312.444 122.404 312.357C121.595 312.27 120.778 312.389 120.027 312.703C119.868 312.776 119.716 312.864 119.574 312.966L106.945 320.368C107.716 319.969 108.582 319.791 109.447 319.853C110.313 319.915 111.144 320.214 111.851 320.718L169.915 354.298C172.315 355.867 174.215 358.092 175.39 360.708L188.063 352.897Z" fill="#407BFF"/>
<path d="M177.332 433.022C177.332 435.942 176.397 437.971 174.923 438.935L187.464 431.562C189.099 430.7 190.136 428.642 190.136 425.503V360.941C190.074 358.136 189.364 355.383 188.063 352.897L175.39 360.693C176.606 363.106 177.27 365.759 177.332 368.46V433.022Z" fill="#407BFF"/>
<path opacity="0.3" d="M188.063 352.897C186.892 350.396 185.04 348.276 182.719 346.779L124.655 313.199C123.988 312.734 123.214 312.444 122.404 312.357C121.595 312.27 120.778 312.389 120.027 312.703C119.868 312.776 119.716 312.864 119.574 312.966L106.945 320.368C107.716 319.969 108.582 319.791 109.447 319.853C110.313 319.915 111.144 320.214 111.851 320.718L169.915 354.298C172.315 355.867 174.215 358.092 175.39 360.708L188.063 352.897Z" fill="black"/>
<path opacity="0.6" d="M177.332 433.022C177.332 435.942 176.397 437.971 174.923 438.935L187.464 431.562C189.099 430.7 190.136 428.642 190.136 425.503V360.941C190.074 358.136 189.364 355.383 188.063 352.897L175.39 360.693C176.606 363.106 177.27 365.759 177.332 368.46V433.022Z" fill="black"/>
<path d="M134.393 375.644L120.392 352.897V383.717L134.393 375.644Z" fill="#407BFF"/>
<path d="M147.402 382.199L161.374 406.391V375.614L147.402 382.199Z" fill="#407BFF"/>
<path d="M122.509 351.86L136.89 375.22C136.95 375.271 137.004 375.33 137.05 375.395C137.063 375.453 137.063 375.513 137.05 375.57L141.328 382.52L144.949 380.812C145.005 380.751 145.069 380.697 145.139 380.651C145.281 380.568 145.441 380.518 145.606 380.505L160.206 373.658L122.509 351.86Z" fill="#407BFF"/>
<path d="M145.285 383.192L141.372 385.031C141.221 385.101 141.056 385.136 140.89 385.133C140.688 385.136 140.49 385.086 140.313 384.988C140.137 384.891 139.988 384.75 139.883 384.579L135.605 377.629L121.56 385.747L159.359 407.559L145.285 383.192Z" fill="#407BFF"/>
<g opacity="0.9">
<path d="M134.393 375.644L120.392 352.897V383.717L134.393 375.644Z" fill="white"/>
<path d="M147.402 382.199L161.374 406.391V375.614L147.402 382.199Z" fill="white"/>
<path d="M122.509 351.86L136.89 375.22C136.95 375.271 137.004 375.33 137.05 375.395C137.063 375.453 137.063 375.513 137.05 375.57L141.328 382.52L144.949 380.812C145.005 380.751 145.069 380.697 145.139 380.651C145.281 380.568 145.441 380.518 145.606 380.505L160.206 373.658L122.509 351.86Z" fill="white"/>
<path d="M145.285 383.192L141.372 385.031C141.221 385.102 141.056 385.137 140.89 385.134C140.688 385.136 140.49 385.086 140.313 384.989C140.137 384.892 139.988 384.75 139.883 384.579L135.605 377.629L121.56 385.747L159.359 407.559L145.285 383.192Z" fill="white"/>
</g>
<path d="M182.719 116.8L124.655 83.22C123.988 82.7543 123.214 82.4647 122.404 82.3779C121.595 82.2911 120.777 82.41 120.027 82.7236C119.868 82.7969 119.716 82.8849 119.574 82.9864L106.945 90.3886H107.033C105.441 91.2792 104.434 93.3962 104.434 96.3892V160.95C104.434 166.411 107.748 172.762 111.851 175.127L169.915 208.707C170.65 209.243 171.527 209.55 172.437 209.589C173.346 209.628 174.246 209.398 175.025 208.926L174.923 208.999L187.464 201.699C189.099 200.838 190.136 198.779 190.136 195.64V130.918C190.136 125.458 186.88 119.107 182.719 116.8Z" fill="#407BFF"/>
<path d="M188.063 122.874C186.892 120.369 185.04 118.244 182.719 116.742L124.655 83.22C123.988 82.7543 123.214 82.4647 122.404 82.3779C121.595 82.2911 120.778 82.41 120.027 82.7236C119.868 82.7969 119.716 82.8849 119.574 82.9864L106.945 90.3886C107.716 89.9901 108.582 89.8119 109.447 89.8737C110.313 89.9355 111.144 90.235 111.851 90.739L169.915 124.319C172.315 125.888 174.215 128.112 175.39 130.728L188.063 122.874Z" fill="#407BFF"/>
<path d="M177.332 202.94C177.332 205.86 176.397 207.889 174.923 208.78L187.464 201.48C189.099 200.619 190.136 198.56 190.136 195.421V130.918C190.074 128.113 189.364 125.359 188.063 122.874L175.39 130.67C176.606 133.082 177.27 135.736 177.332 138.437V202.94Z" fill="#407BFF"/>
<path opacity="0.3" d="M188.063 122.874C186.892 120.369 185.04 118.244 182.719 116.742L124.655 83.22C123.988 82.7543 123.214 82.4647 122.404 82.3779C121.595 82.2911 120.778 82.41 120.027 82.7236C119.868 82.7969 119.716 82.8849 119.574 82.9864L106.945 90.3886C107.716 89.9901 108.582 89.8119 109.447 89.8737C110.313 89.9355 111.144 90.235 111.851 90.739L169.915 124.319C172.315 125.888 174.215 128.112 175.39 130.728L188.063 122.874Z" fill="black"/>
<path opacity="0.6" d="M177.332 202.94C177.332 205.86 176.397 207.889 174.923 208.78L187.464 201.48C189.099 200.619 190.136 198.56 190.136 195.421V130.918C190.074 128.113 189.364 125.359 188.063 122.874L175.39 130.67C176.606 133.082 177.27 135.736 177.332 138.437V202.94Z" fill="black"/>
<path d="M158.337 175.2C156.103 171.521 153.855 167.9 151.621 164.192C151.267 163.489 150.771 162.867 150.166 162.365C149.561 161.863 148.858 161.49 148.102 161.272C147.022 161.053 145.942 160.804 144.832 160.483C144.437 160.318 144.104 160.032 143.883 159.666C140.228 153.41 137.322 146.745 135.225 139.81C135.181 139.661 135.168 139.505 135.188 139.352C135.208 139.198 135.261 139.051 135.342 138.919C136.028 138.233 136.802 137.605 137.503 136.992C138.204 136.379 138.569 134.962 138.058 133.123C136.977 129.225 135.941 125.326 134.86 121.443C134.651 120.339 134.155 119.31 133.422 118.46C132.689 117.609 131.745 116.966 130.685 116.596C128.33 115.941 125.831 116.033 123.531 116.858C122.64 117.194 122.173 117.997 122.158 119.384C122.538 122.056 122.786 124.699 123.297 127.414C126.898 146.998 135.561 165.004 149.285 181.434C149.643 181.979 150.125 182.432 150.69 182.757C151.256 183.081 151.89 183.268 152.541 183.303C154.813 183.249 156.996 182.408 158.717 180.923C160.016 179.755 159.885 177.682 158.337 175.2Z" fill="#407BFF"/>
<path d="M158.162 155.3C157.856 151.101 156.699 147.008 154.76 143.27C153.312 140.35 151.47 137.643 149.285 135.225C148.716 134.583 148.234 134.379 147.942 134.86C147.65 135.342 147.942 136.028 148.497 136.656L149.066 137.313C153.101 141.971 155.645 147.734 156.366 153.855C156.359 154.301 156.403 154.747 156.497 155.184C156.681 155.686 156.975 156.14 157.359 156.512C157.665 156.731 158.016 156.512 158.264 156.512C158.176 155.914 158.191 155.607 158.162 155.3Z" fill="#407BFF"/>
<path d="M144.934 143.314C146.768 145.33 147.882 147.897 148.102 150.614C148.199 151.027 148.351 151.425 148.555 151.796C149.446 152.526 149.884 152.278 149.884 151.358C149.572 147.875 148.131 144.589 145.781 142C145.226 141.43 144.774 141.255 144.511 141.737C144.416 142.012 144.406 142.309 144.482 142.59C144.557 142.871 144.715 143.123 144.934 143.314Z" fill="#407BFF"/>
<g opacity="0.9">
<path d="M158.337 175.2C156.103 171.521 153.855 167.9 151.621 164.192C151.267 163.489 150.771 162.867 150.166 162.365C149.561 161.863 148.858 161.49 148.102 161.272C147.022 161.053 145.942 160.804 144.832 160.483C144.437 160.318 144.104 160.032 143.883 159.666C140.228 153.41 137.322 146.745 135.225 139.81C135.181 139.661 135.168 139.505 135.188 139.352C135.208 139.198 135.261 139.051 135.342 138.919C136.028 138.233 136.802 137.605 137.503 136.992C138.204 136.379 138.569 134.962 138.058 133.123C136.977 129.225 135.941 125.326 134.86 121.443C134.651 120.339 134.155 119.31 133.422 118.46C132.689 117.609 131.745 116.966 130.685 116.596C128.33 115.941 125.831 116.033 123.531 116.858C122.64 117.194 122.173 117.997 122.158 119.384C122.538 122.056 122.786 124.699 123.297 127.414C126.898 146.998 135.561 165.004 149.285 181.434C149.643 181.979 150.125 182.432 150.69 182.757C151.256 183.081 151.89 183.268 152.541 183.303C154.813 183.249 156.996 182.408 158.717 180.923C160.016 179.755 159.885 177.682 158.337 175.2Z" fill="white"/>
<path d="M158.162 155.3C157.856 151.101 156.699 147.008 154.76 143.27C153.312 140.35 151.47 137.643 149.285 135.225C148.716 134.583 148.234 134.379 147.942 134.86C147.65 135.342 147.942 136.028 148.497 136.656L149.066 137.313C153.101 141.971 155.645 147.734 156.366 153.855C156.359 154.301 156.403 154.747 156.497 155.184C156.681 155.686 156.975 156.14 157.359 156.512C157.665 156.731 158.016 156.512 158.264 156.512C158.176 155.914 158.191 155.607 158.162 155.3Z" fill="white"/>
<path d="M144.934 143.314C146.768 145.33 147.882 147.897 148.102 150.614C148.199 151.027 148.351 151.425 148.555 151.796C149.446 152.526 149.884 152.278 149.884 151.358C149.572 147.875 148.131 144.589 145.781 142C145.226 141.43 144.774 141.255 144.511 141.737C144.416 142.012 144.406 142.309 144.482 142.59C144.557 142.871 144.715 143.123 144.934 143.314Z" fill="white"/>
</g>
<path d="M480.632 78.0808L494.312 85.8626V81.0154C494.312 80.6796 494.312 80.3292 494.312 79.9934C494.312 79.6576 494.312 79.3364 494.312 79.0152V78.84C494.808 72.4306 499.67 69.9632 505.598 73.3942C508.281 75.0448 510.581 77.25 512.343 79.862C513.672 71.102 520.782 68.0068 529.381 72.9562C538.93 78.475 546.668 91.9362 546.668 102.915V113.281C546.654 114.111 546.859 114.929 547.261 115.654C547.663 116.379 548.249 116.986 548.96 117.413L557.019 122.129C558.758 123.16 560.2 124.625 561.203 126.381C562.207 128.137 562.737 130.123 562.742 132.145C562.742 132.983 562.522 133.808 562.102 134.534C561.683 135.26 561.079 135.863 560.352 136.282C559.625 136.701 558.801 136.921 557.962 136.92C557.123 136.919 556.299 136.697 555.574 136.276L480.836 93.075C478.854 91.9235 477.207 90.2734 476.059 88.2884C474.912 86.3034 474.304 84.0528 474.295 81.76C474.295 81.0179 474.489 80.2886 474.859 79.6452C475.229 79.0019 475.762 78.4671 476.403 78.0944C477.045 77.7218 477.774 77.5244 478.516 77.522C479.258 77.5196 479.988 77.7123 480.632 78.0808Z" fill="#E6E6E6"/>
<path d="M584.92 76.0513L594.862 81.7599V78.1975C594.862 77.9493 594.862 77.7011 594.862 77.4529C594.862 77.2047 594.862 76.9711 594.862 76.7375V76.6499C595.227 71.9925 598.761 70.1967 603.068 72.6933C605.018 73.8884 606.69 75.4862 607.973 77.3799C608.951 71.0435 614.12 68.7513 620.369 72.3575C627.318 76.3725 632.939 86.1253 632.939 94.1407V101.689C632.944 102.281 633.103 102.861 633.4 103.373C633.697 103.885 634.122 104.311 634.633 104.609L640.473 108.04C641.744 108.787 642.796 109.854 643.526 111.135C644.257 112.416 644.638 113.866 644.634 115.34C644.633 115.944 644.475 116.537 644.175 117.061C643.875 117.585 643.443 118.022 642.923 118.328C642.403 118.635 641.812 118.8 641.208 118.809C640.604 118.817 640.009 118.668 639.48 118.377L585.066 86.9575C583.624 86.1234 582.427 84.9249 581.594 83.4823C580.761 82.0396 580.322 80.4035 580.321 78.7377C580.32 78.1986 580.46 77.6686 580.728 77.2008C580.996 76.7329 581.382 76.3436 581.848 76.0717C582.313 75.7997 582.842 75.6548 583.381 75.6512C583.92 75.6476 584.451 75.7856 584.92 76.0513Z" fill="#E6E6E6"/>
</svg>
