<svg width="730" height="730" viewBox="0 0 730 730" fill="none" xmlns="http://www.w3.org/2000/svg">
<path d="M730 558.304H0V558.669H730V558.304Z" fill="#E0E0E0"/>
<path d="M116.552 581.197H76.5916V581.562H116.552V581.197Z" fill="#E0E0E0"/>
<path d="M138.86 581.197H126.173V581.562H138.86V581.197Z" fill="#E0E0E0"/>
<path d="M365 576.16H336.734V576.525H365V576.16Z" fill="#E0E0E0"/>
<path d="M610.221 575.97H547.164V576.335H610.221V575.97Z" fill="#E0E0E0"/>
<path d="M632.472 575.97H623.23V576.335H632.472V575.97Z" fill="#E0E0E0"/>
<path d="M497.378 567.327H360.605V567.692H497.378V567.327Z" fill="#E0E0E0"/>
<path d="M346.02 493.188H64.1086C61.9001 493.184 59.7835 492.304 58.2232 490.741C56.6629 489.178 55.7866 487.06 55.7866 484.851V88.5636C55.8058 86.3678 56.6906 84.2682 58.2488 82.721C59.807 81.1737 61.9127 80.3037 64.1086 80.3H346.02C348.231 80.3 350.351 81.1783 351.915 82.7417C353.478 84.3051 354.357 86.4256 354.357 88.6366V484.851C354.357 487.062 353.478 489.183 351.915 490.746C350.351 492.31 348.231 493.188 346.02 493.188ZM64.1086 80.592C61.997 80.5959 59.9731 81.4374 58.4813 82.932C56.9895 84.4265 56.1516 86.4519 56.1516 88.5636V484.851C56.1516 486.963 56.9895 488.988 58.4813 490.483C59.9731 491.978 61.997 492.819 64.1086 492.823H346.02C348.133 492.819 350.158 491.978 351.653 490.484C353.147 488.99 353.988 486.964 353.992 484.851V88.5636C353.988 86.4506 353.147 84.4252 351.653 82.9311C350.158 81.4369 348.133 80.5958 346.02 80.592H64.1086Z" fill="#E0E0E0"/>
<path d="M661.833 493.188H379.907C377.697 493.184 375.579 492.305 374.016 490.742C372.454 489.179 371.574 487.061 371.57 484.851V88.5636C371.593 86.3665 372.481 84.2669 374.042 82.7201C375.602 81.1732 377.709 80.3037 379.907 80.3H661.833C664.026 80.3076 666.128 81.1793 667.683 82.7261C669.238 84.2729 670.121 86.3703 670.14 88.5636V484.851C670.14 487.057 669.266 489.173 667.709 490.736C666.152 492.298 664.039 493.18 661.833 493.188ZM379.907 80.592C377.794 80.5958 375.768 81.4369 374.274 82.9311C372.78 84.4252 371.939 86.4506 371.935 88.5636V484.851C371.939 486.964 372.78 488.99 374.274 490.484C375.768 491.978 377.794 492.819 379.907 492.823H661.833C663.946 492.819 665.971 491.978 667.465 490.484C668.959 488.99 669.8 486.964 669.804 484.851V88.5636C669.8 86.4506 668.959 84.4252 667.465 82.9311C665.971 81.4369 663.946 80.5958 661.833 80.592H379.907Z" fill="#E0E0E0"/>
<path d="M455.841 74.46C455.845 72.8658 456.48 71.3381 457.607 70.2109C458.735 69.0836 460.262 68.4486 461.857 68.4448H649.218C650.812 68.4486 652.34 69.0836 653.467 70.2109C654.595 71.3381 655.23 72.8658 655.234 74.46V93.7758H455.841V74.46Z" fill="#E0E0E0"/>
<path d="M499.918 81.0884C499.916 81.9899 500.18 82.8721 500.679 83.6231C501.178 84.3741 501.888 84.9602 502.72 85.3072C503.552 85.6543 504.469 85.7465 505.353 85.5724C506.238 85.3983 507.051 84.9656 507.689 84.3292C508.328 83.6927 508.763 82.8811 508.94 81.997C509.117 81.113 509.028 80.1964 508.684 79.3632C508.339 78.53 507.755 77.8177 507.006 77.3165C506.256 76.8153 505.375 76.5478 504.474 76.5478C503.268 76.5478 502.112 77.0257 501.258 77.8768C500.404 78.7279 499.922 79.8828 499.918 81.0884Z" fill="white"/>
<path d="M483.8 81.0884C483.797 81.9899 484.062 82.8721 484.561 83.6231C485.06 84.3741 485.77 84.9602 486.602 85.3072C487.434 85.6543 488.351 85.7465 489.235 85.5724C490.12 85.3983 490.933 84.9656 491.571 84.3292C492.21 83.6927 492.645 82.8811 492.822 81.997C492.999 81.113 492.91 80.1964 492.565 79.3632C492.221 78.53 491.637 77.8177 490.888 77.3165C490.138 76.8153 489.257 76.5478 488.356 76.5478C487.15 76.5478 485.994 77.0257 485.14 77.8768C484.286 78.7279 483.804 79.8828 483.8 81.0884Z" fill="white"/>
<path d="M467.682 81.0884C467.679 81.9899 467.944 82.8721 468.442 83.6231C468.941 84.3741 469.651 84.9602 470.484 85.3072C471.316 85.6543 472.232 85.7465 473.117 85.5724C474.001 85.3983 474.814 84.9656 475.453 84.3292C476.091 83.6927 476.527 82.8811 476.703 81.997C476.88 81.113 476.791 80.1964 476.447 79.3632C476.102 78.53 475.519 77.8177 474.769 77.3165C474.02 76.8153 473.138 76.5478 472.237 76.5478C471.031 76.5478 469.875 77.0257 469.021 77.8768C468.167 78.7279 467.686 79.8828 467.682 81.0884Z" fill="white"/>
<path d="M649.218 224.183H461.857C460.262 224.179 458.735 223.544 457.607 222.417C456.48 221.29 455.845 219.762 455.841 218.168V93.7758H655.234V218.168C655.23 219.762 654.595 221.29 653.467 222.417C652.34 223.544 650.812 224.179 649.218 224.183Z" fill="#F0F0F0"/>
<path d="M442.38 94.5496C442.384 92.9554 443.019 91.4277 444.146 90.3004C445.273 89.1732 446.801 88.5382 448.395 88.5344H635.801C637.395 88.5382 638.923 89.1732 640.05 90.3004C641.177 91.4277 641.812 92.9554 641.816 94.5496V113.88H442.38V94.5496Z" fill="#F0F0F0"/>
<path d="M486.501 101.222C486.498 102.124 486.763 103.007 487.263 103.758C487.762 104.509 488.474 105.095 489.306 105.442C490.139 105.789 491.057 105.88 491.942 105.705C492.827 105.529 493.639 105.095 494.277 104.457C494.915 103.819 495.349 103.006 495.525 102.121C495.7 101.236 495.609 100.319 495.262 99.4864C494.916 98.6535 494.329 97.9422 493.578 97.4428C492.827 96.9434 491.944 96.6783 491.042 96.6812C489.839 96.685 488.686 97.1646 487.835 98.0153C486.985 98.866 486.505 100.019 486.501 101.222Z" fill="#E0E0E0"/>
<path d="M470.383 101.222C470.38 102.123 470.645 103.005 471.143 103.757C471.642 104.508 472.353 105.094 473.185 105.441C474.017 105.788 474.933 105.88 475.818 105.706C476.702 105.532 477.515 105.099 478.154 104.463C478.792 103.826 479.228 103.014 479.405 102.13C479.582 101.246 479.492 100.33 479.148 99.4966C478.804 98.6634 478.22 97.9511 477.47 97.4499C476.721 96.9488 475.84 96.6812 474.938 96.6812C473.732 96.6812 472.576 97.1591 471.722 98.0102C470.868 98.8613 470.387 100.016 470.383 101.222Z" fill="#E0E0E0"/>
<path d="M454.264 101.222C454.262 102.123 454.526 103.005 455.025 103.757C455.524 104.508 456.234 105.094 457.066 105.441C457.898 105.788 458.815 105.88 459.699 105.706C460.584 105.532 461.397 105.099 462.035 104.463C462.674 103.826 463.109 103.014 463.286 102.13C463.463 101.246 463.374 100.33 463.029 99.4966C462.685 98.6634 462.101 97.9511 461.352 97.4499C460.602 96.9488 459.721 96.6812 458.82 96.6812C457.614 96.6812 456.458 97.1591 455.604 98.0102C454.75 98.8613 454.268 100.016 454.264 101.222Z" fill="#E0E0E0"/>
<path d="M635.801 244.316H448.424C446.83 244.313 445.303 243.678 444.175 242.55C443.048 241.423 442.413 239.895 442.409 238.301V113.88H641.816V238.272C641.818 239.064 641.664 239.848 641.363 240.581C641.061 241.313 640.619 241.979 640.06 242.54C639.502 243.101 638.838 243.547 638.107 243.852C637.376 244.157 636.593 244.314 635.801 244.316Z" fill="#FAFAFA"/>
<path d="M428.992 114.683C428.994 113.887 429.153 113.1 429.46 112.366C429.768 111.633 430.218 110.967 430.784 110.408C431.35 109.849 432.02 109.407 432.758 109.109C433.495 108.81 434.284 108.66 435.08 108.668H622.383C623.977 108.672 625.505 109.307 626.632 110.434C627.76 111.561 628.395 113.089 628.399 114.683V134.043H428.992V114.683Z" fill="#FAFAFA"/>
<path d="M473.04 121.355C473.04 122.255 473.306 123.134 473.806 123.883C474.305 124.631 475.015 125.215 475.845 125.561C476.676 125.906 477.59 125.998 478.473 125.825C479.356 125.652 480.168 125.221 480.806 124.586C481.444 123.952 481.88 123.143 482.059 122.262C482.238 121.38 482.152 120.465 481.812 119.632C481.472 118.799 480.892 118.086 480.147 117.582C479.402 117.078 478.524 116.806 477.624 116.8C477.024 116.796 476.428 116.911 475.872 117.138C475.316 117.366 474.811 117.7 474.385 118.124C473.958 118.547 473.62 119.051 473.39 119.605C473.159 120.16 473.04 120.755 473.04 121.355Z" fill="#F0F0F0"/>
<path d="M456.98 121.355C456.98 122.257 457.248 123.139 457.75 123.889C458.252 124.639 458.965 125.223 459.799 125.566C460.633 125.91 461.55 125.999 462.435 125.821C463.319 125.642 464.131 125.206 464.767 124.566C465.402 123.926 465.834 123.111 466.006 122.226C466.179 121.34 466.084 120.424 465.735 119.592C465.386 118.76 464.798 118.05 464.045 117.553C463.292 117.056 462.408 116.794 461.506 116.8C460.303 116.808 459.152 117.291 458.304 118.144C457.456 118.998 456.98 120.152 456.98 121.355Z" fill="#F0F0F0"/>
<path d="M445.388 125.91C447.903 125.91 449.943 123.871 449.943 121.355C449.943 118.839 447.903 116.8 445.388 116.8C442.872 116.8 440.833 118.839 440.833 121.355C440.833 123.871 442.872 125.91 445.388 125.91Z" fill="#F0F0F0"/>
<path d="M622.384 264.45H435.08C433.486 264.446 431.958 263.811 430.831 262.684C429.704 261.557 429.069 260.029 429.065 258.435V134.043H628.399V258.42C628.399 260.017 627.765 261.548 626.638 262.679C625.51 263.809 623.98 264.446 622.384 264.45Z" fill="#E0E0E0"/>
<path d="M115.53 186.705C115.541 185.208 116.14 183.776 117.196 182.717C118.253 181.657 119.684 181.055 121.18 181.04H403.588C405.097 181.044 406.543 181.645 407.61 182.712C408.677 183.779 409.278 185.225 409.282 186.734V205.101H115.53V186.705Z" fill="#E0E0E0"/>
<path d="M161.666 197.728C160.739 197.728 159.833 197.453 159.062 196.938C158.291 196.423 157.691 195.691 157.336 194.835C156.981 193.978 156.888 193.036 157.069 192.127C157.25 191.218 157.696 190.383 158.352 189.727C159.007 189.072 159.842 188.626 160.752 188.445C161.661 188.264 162.603 188.357 163.459 188.711C164.316 189.066 165.048 189.667 165.563 190.437C166.078 191.208 166.352 192.114 166.352 193.041C166.352 194.284 165.859 195.476 164.98 196.355C164.101 197.234 162.909 197.728 161.666 197.728ZM161.666 189.099C160.886 189.096 160.122 189.325 159.472 189.756C158.822 190.188 158.314 190.802 158.014 191.523C157.713 192.243 157.633 193.036 157.783 193.801C157.934 194.567 158.308 195.271 158.859 195.823C159.409 196.376 160.112 196.753 160.877 196.906C161.642 197.06 162.435 196.982 163.156 196.685C163.878 196.387 164.494 195.881 164.928 195.233C165.362 194.584 165.593 193.821 165.593 193.041C165.593 191.998 165.18 190.998 164.444 190.259C163.708 189.52 162.709 189.103 161.666 189.099Z" fill="white"/>
<path d="M146.379 197.728C145.453 197.728 144.546 197.453 143.776 196.938C143.005 196.423 142.404 195.691 142.05 194.835C141.695 193.978 141.602 193.036 141.783 192.127C141.964 191.218 142.41 190.383 143.066 189.727C143.721 189.072 144.556 188.626 145.465 188.445C146.374 188.264 147.317 188.357 148.173 188.711C149.029 189.066 149.761 189.667 150.276 190.437C150.791 191.208 151.066 192.114 151.066 193.041C151.066 194.284 150.572 195.476 149.693 196.355C148.814 197.234 147.622 197.728 146.379 197.728ZM146.379 189.099C145.6 189.099 144.838 189.33 144.189 189.764C143.541 190.197 143.036 190.812 142.738 191.533C142.439 192.253 142.361 193.046 142.513 193.81C142.665 194.575 143.041 195.277 143.592 195.829C144.143 196.38 144.846 196.755 145.61 196.907C146.375 197.06 147.168 196.982 147.888 196.683C148.608 196.385 149.224 195.88 149.657 195.231C150.09 194.583 150.321 193.821 150.321 193.041C150.321 191.996 149.906 190.993 149.167 190.254C148.428 189.515 147.425 189.099 146.379 189.099Z" fill="white"/>
<path d="M131.093 197.728C130.166 197.728 129.26 197.453 128.49 196.938C127.719 196.423 127.118 195.691 126.763 194.835C126.409 193.978 126.316 193.036 126.497 192.127C126.678 191.218 127.124 190.383 127.779 189.727C128.435 189.072 129.27 188.626 130.179 188.445C131.088 188.264 132.03 188.357 132.887 188.711C133.743 189.066 134.475 189.667 134.99 190.437C135.505 191.208 135.78 192.114 135.78 193.041C135.78 194.284 135.286 195.476 134.407 196.355C133.528 197.234 132.336 197.728 131.093 197.728ZM131.093 189.099C130.314 189.099 129.552 189.33 128.903 189.764C128.255 190.197 127.75 190.812 127.451 191.533C127.153 192.253 127.075 193.046 127.227 193.81C127.379 194.575 127.755 195.277 128.306 195.829C128.857 196.38 129.56 196.755 130.324 196.907C131.089 197.06 131.882 196.982 132.602 196.683C133.322 196.385 133.938 195.88 134.371 195.231C134.804 194.583 135.035 193.821 135.035 193.041C135.035 192.524 134.933 192.011 134.735 191.533C134.537 191.054 134.247 190.62 133.881 190.254C133.515 189.888 133.08 189.597 132.602 189.399C132.124 189.201 131.611 189.099 131.093 189.099Z" fill="white"/>
<path d="M403.588 357.7H121.18C119.667 357.696 118.217 357.093 117.148 356.024C116.078 354.954 115.475 353.504 115.471 351.991V205.072H409.223V352.035C409.212 353.529 408.616 354.959 407.562 356.018C406.508 357.077 405.082 357.681 403.588 357.7Z" fill="#F0F0F0"/>
<path d="M102.799 225.439C102.802 223.926 103.405 222.476 104.475 221.406C105.545 220.337 106.994 219.734 108.507 219.73H390.857C392.368 219.734 393.816 220.337 394.884 221.407C395.951 222.477 396.551 223.927 396.551 225.439V243.82H102.799V225.439Z" fill="#FAFAFA"/>
<path d="M148.92 236.52C147.993 236.52 147.087 236.245 146.316 235.73C145.546 235.215 144.945 234.483 144.59 233.627C144.235 232.771 144.143 231.828 144.323 230.919C144.504 230.01 144.951 229.175 145.606 228.519C146.262 227.864 147.097 227.418 148.006 227.237C148.915 227.056 149.857 227.149 150.713 227.504C151.57 227.858 152.302 228.459 152.817 229.23C153.332 230 153.607 230.906 153.607 231.833C153.607 233.076 153.113 234.268 152.234 235.147C151.355 236.026 150.163 236.52 148.92 236.52ZM148.92 227.891C148.14 227.891 147.378 228.123 146.73 228.556C146.082 228.989 145.576 229.605 145.278 230.325C144.98 231.045 144.902 231.838 145.054 232.602C145.206 233.367 145.581 234.07 146.133 234.621C146.684 235.172 147.386 235.548 148.151 235.7C148.916 235.852 149.708 235.774 150.429 235.475C151.149 235.177 151.764 234.672 152.198 234.023C152.631 233.375 152.862 232.613 152.862 231.833C152.88 231.305 152.791 230.778 152.601 230.284C152.41 229.791 152.123 229.341 151.755 228.961C151.387 228.581 150.947 228.278 150.46 228.072C149.972 227.866 149.449 227.76 148.92 227.76V227.891Z" fill="#E0E0E0"/>
<path d="M133.649 236.52C132.722 236.52 131.815 236.245 131.045 235.73C130.274 235.215 129.673 234.483 129.319 233.627C128.964 232.771 128.871 231.828 129.052 230.919C129.233 230.01 129.679 229.175 130.335 228.519C130.99 227.864 131.825 227.418 132.734 227.237C133.643 227.056 134.586 227.149 135.442 227.504C136.298 227.858 137.03 228.459 137.545 229.23C138.06 230 138.335 230.906 138.335 231.833C138.335 233.076 137.841 234.268 136.962 235.147C136.084 236.026 134.891 236.52 133.649 236.52ZM133.649 227.891C132.869 227.891 132.107 228.123 131.458 228.556C130.81 228.989 130.305 229.605 130.007 230.325C129.708 231.045 129.63 231.838 129.782 232.602C129.934 233.367 130.31 234.07 130.861 234.621C131.412 235.172 132.115 235.548 132.879 235.7C133.644 235.852 134.437 235.774 135.157 235.475C135.877 235.177 136.493 234.672 136.926 234.023C137.359 233.375 137.591 232.613 137.591 231.833C137.608 231.305 137.519 230.778 137.329 230.284C137.139 229.791 136.851 229.341 136.483 228.961C136.116 228.581 135.675 228.278 135.188 228.072C134.701 227.866 134.177 227.76 133.649 227.76V227.891Z" fill="#E0E0E0"/>
<path d="M118.362 236.52C117.435 236.52 116.529 236.245 115.758 235.73C114.988 235.215 114.387 234.483 114.032 233.627C113.678 232.771 113.585 231.828 113.766 230.919C113.946 230.01 114.393 229.175 115.048 228.519C115.704 227.864 116.539 227.418 117.448 227.237C118.357 227.056 119.299 227.149 120.156 227.504C121.012 227.858 121.744 228.459 122.259 229.23C122.774 230 123.049 230.906 123.049 231.833C123.049 233.076 122.555 234.268 121.676 235.147C120.797 236.026 119.605 236.52 118.362 236.52ZM118.362 227.891C117.582 227.891 116.82 228.123 116.172 228.556C115.524 228.989 115.019 229.605 114.72 230.325C114.422 231.045 114.344 231.838 114.496 232.602C114.648 233.367 115.023 234.07 115.575 234.621C116.126 235.172 116.828 235.548 117.593 235.7C118.358 235.852 119.15 235.774 119.871 235.475C120.591 235.177 121.207 234.672 121.64 234.023C122.073 233.375 122.304 232.613 122.304 231.833C122.322 231.305 122.233 230.778 122.043 230.284C121.852 229.791 121.565 229.341 121.197 228.961C120.829 228.581 120.389 228.278 119.902 228.072C119.415 227.866 118.891 227.76 118.362 227.76V227.891Z" fill="#E0E0E0"/>
<path d="M390.857 425.444H108.507C106.994 425.44 105.545 424.837 104.475 423.768C103.405 422.698 102.802 421.248 102.799 419.735V243.82H396.551V419.735C396.551 421.247 395.951 422.697 394.884 423.767C393.816 424.837 392.368 425.44 390.857 425.444Z" fill="#F0F0F0"/>
<path d="M199.232 87.3664H96.3599C94.7851 87.3625 93.276 86.7352 92.1624 85.6217C91.0489 84.5082 90.4216 82.999 90.4177 81.4242C90.4254 79.8519 91.0544 78.3465 92.1675 77.2361C93.2807 76.1257 94.7877 75.5004 96.3599 75.4966H199.261C200.83 75.5043 202.334 76.1312 203.444 77.2412C204.554 78.3512 205.181 79.8545 205.188 81.4242C205.184 83.0015 204.555 84.5129 203.438 85.6268C202.322 86.7408 200.809 87.3664 199.232 87.3664Z" fill="#E0E0E0"/>
<path d="M241.966 112.245L96.652 111.661C95.0925 111.63 93.6072 110.989 92.5152 109.875C91.4232 108.761 90.8117 107.264 90.812 105.704C90.8197 104.131 91.4512 102.624 92.5679 101.516C93.6846 100.407 95.1954 99.7871 96.7688 99.791L242.068 100.375C243.64 100.387 245.144 101.019 246.252 102.135C247.359 103.251 247.981 104.759 247.981 106.332C247.977 107.116 247.818 107.891 247.513 108.614C247.208 109.336 246.764 109.991 246.204 110.541C245.645 111.09 244.983 111.524 244.255 111.816C243.528 112.109 242.75 112.254 241.966 112.245Z" fill="#F0F0F0"/>
<path d="M164.615 139.737H96.3599C94.7851 139.733 93.276 139.105 92.1624 137.992C91.0489 136.878 90.4216 135.369 90.4177 133.794C90.4254 132.222 91.0544 130.717 92.1675 129.606C93.2807 128.496 94.7877 127.871 96.3599 127.867H164.644C166.216 127.871 167.723 128.496 168.837 129.606C169.95 130.717 170.579 132.222 170.586 133.794C170.584 134.577 170.428 135.351 170.127 136.073C169.826 136.795 169.386 137.45 168.831 138.002C168.277 138.554 167.619 138.991 166.896 139.289C166.172 139.586 165.397 139.739 164.615 139.737Z" fill="#E6E6E6"/>
<path d="M636.326 307.739H604.63C603.433 307.735 602.286 307.259 601.439 306.414C600.591 305.569 600.111 304.424 600.104 303.227C600.111 302.029 600.591 300.883 601.438 300.036C602.285 299.188 603.432 298.709 604.63 298.701H636.326C637.523 298.709 638.668 299.189 639.513 300.036C640.358 300.884 640.834 302.031 640.838 303.227C640.834 304.423 640.357 305.568 639.512 306.413C638.667 307.258 637.522 307.735 636.326 307.739Z" fill="#E0E0E0"/>
<path d="M651.379 318.003H604.615C602.124 318.003 600.104 320.022 600.104 322.514V322.529C600.104 325.02 602.124 327.04 604.615 327.04H651.379C653.871 327.04 655.89 325.02 655.89 322.529V322.514C655.89 320.022 653.871 318.003 651.379 318.003Z" fill="#F0F0F0"/>
<path d="M624.033 347.611H604.63C604.034 347.615 603.442 347.502 602.89 347.277C602.338 347.052 601.835 346.721 601.411 346.302C600.986 345.883 600.649 345.385 600.417 344.835C600.185 344.286 600.064 343.696 600.06 343.1C600.068 341.902 600.547 340.755 601.394 339.908C602.241 339.061 603.388 338.582 604.586 338.574H623.989C625.189 338.578 626.338 339.056 627.186 339.904C628.034 340.752 628.512 341.901 628.515 343.1C628.512 344.29 628.039 345.431 627.2 346.276C626.361 347.12 625.224 347.6 624.033 347.611Z" fill="#E6E6E6"/>
<path d="M637.378 366.898H604.63C603.433 366.894 602.286 366.418 601.439 365.573C600.591 364.728 600.111 363.583 600.104 362.387C600.111 361.189 600.591 360.042 601.438 359.195C602.285 358.348 603.432 357.868 604.63 357.861H637.378C638.574 357.868 639.719 358.348 640.564 359.196C641.409 360.043 641.885 361.19 641.889 362.387C641.885 363.582 641.409 364.727 640.563 365.572C639.718 366.418 638.573 366.894 637.378 366.898Z" fill="#F0F0F0"/>
<path d="M632.18 387.484H604.63C603.433 387.48 602.286 387.004 601.439 386.159C600.591 385.314 600.111 384.169 600.104 382.973C600.111 381.775 600.591 380.628 601.438 379.781C602.285 378.933 603.432 378.454 604.63 378.447H632.18C633.378 378.454 634.525 378.933 635.372 379.781C636.219 380.628 636.698 381.775 636.706 382.973C636.698 384.169 636.218 385.314 635.371 386.159C634.523 387.004 633.377 387.48 632.18 387.484Z" fill="#E6E6E6"/>
<path d="M527.717 331.551H433.503C432.305 331.548 431.158 331.069 430.312 330.221C429.467 329.372 428.992 328.223 428.992 327.025C428.996 325.83 429.472 324.685 430.317 323.84C431.163 322.994 432.308 322.518 433.503 322.514H527.717C528.912 322.518 530.057 322.994 530.903 323.84C531.748 324.685 532.224 325.83 532.228 327.025C532.228 328.223 531.753 329.372 530.908 330.221C530.062 331.069 528.915 331.548 527.717 331.551Z" fill="#E0E0E0"/>
<path d="M565.852 350.838H433.503C432.308 350.834 431.163 350.358 430.317 349.512C429.472 348.667 428.996 347.522 428.992 346.327C428.992 345.129 429.467 343.98 430.312 343.131C431.158 342.283 432.305 341.804 433.503 341.801H565.852C567.051 341.804 568.2 342.283 569.048 343.13C569.896 343.978 570.374 345.127 570.378 346.327C570.37 347.523 569.891 348.668 569.043 349.513C568.196 350.358 567.049 350.834 565.852 350.838Z" fill="#F0F0F0"/>
<path d="M496.575 371.424H433.503C432.305 371.42 431.158 370.942 430.312 370.093C429.467 369.245 428.992 368.096 428.992 366.898C428.996 365.703 429.472 364.557 430.317 363.712C431.163 362.867 432.308 362.39 433.503 362.387H496.575C497.772 362.39 498.919 362.866 499.766 363.711C500.614 364.556 501.093 365.701 501.101 366.898C501.097 368.097 500.619 369.246 499.771 370.094C498.923 370.942 497.774 371.42 496.575 371.424Z" fill="#E6E6E6"/>
<path d="M530.374 390.711H433.503C432.305 390.707 431.158 390.228 430.312 389.38C429.467 388.531 428.992 387.382 428.992 386.185C428.996 384.989 429.472 383.844 430.317 382.999C431.163 382.154 432.308 381.677 433.503 381.673H530.374C531.572 381.673 532.721 382.148 533.569 382.994C534.418 383.839 534.896 384.987 534.9 386.185C534.9 386.779 534.783 387.368 534.556 387.917C534.328 388.466 533.995 388.965 533.574 389.385C533.154 389.805 532.655 390.139 532.106 390.366C531.557 390.594 530.968 390.711 530.374 390.711Z" fill="#F0F0F0"/>
<path d="M517.03 411.297H433.503C432.305 411.293 431.158 410.814 430.312 409.966C429.467 409.117 428.992 407.968 428.992 406.771C428.996 405.575 429.472 404.43 430.317 403.585C431.163 402.74 432.308 402.263 433.503 402.259H517.03C518.225 402.263 519.37 402.74 520.215 403.585C521.061 404.43 521.537 405.575 521.541 406.771C521.541 407.968 521.066 409.117 520.221 409.966C519.375 410.814 518.228 411.293 517.03 411.297Z" fill="#E6E6E6"/>
<path d="M365 624.238C521.34 624.238 648.079 616.838 648.079 607.71C648.079 598.583 521.34 591.183 365 591.183C208.66 591.183 81.9207 598.583 81.9207 607.71C81.9207 616.838 208.66 624.238 365 624.238Z" fill="#F5F5F5"/>
<path opacity="0.7" d="M511.54 507.759H331.61C325.634 507.794 319.715 506.601 314.22 504.254C308.724 501.908 303.769 498.457 299.663 494.116C295.556 489.775 292.385 484.637 290.346 479.02C288.307 473.403 287.444 467.427 287.81 461.462L303.198 167.769C304.468 142.306 326.383 121.472 351.86 121.472H531.79C537.772 121.427 543.699 122.612 549.203 124.955C554.707 127.297 559.671 130.746 563.786 135.088C567.9 139.43 571.078 144.572 573.121 150.194C575.165 155.816 576.03 161.798 575.663 167.769L560.26 461.462C558.932 486.925 537.002 507.759 511.54 507.759Z" fill="#407BFF"/>
<path d="M405.281 104.551H394.083V106.011H405.281V104.551Z" fill="#407BFF"/>
<path d="M384.52 104.551H345.582V106.011H384.52V104.551Z" fill="#407BFF"/>
<path d="M283.748 204.697L283.162 215.763L284.62 215.84L285.206 204.774L283.748 204.697Z" fill="#407BFF"/>
<path opacity="0.6" d="M501.189 497.422H321.2C315.226 497.457 309.308 496.265 303.813 493.919C298.319 491.573 293.365 488.123 289.258 483.784C285.152 479.445 281.98 474.308 279.94 468.693C277.901 463.078 277.036 457.103 277.4 451.14L292.803 157.432C294.132 131.969 316.061 111.135 341.523 111.135H521.439C527.421 111.09 533.348 112.275 538.852 114.618C544.356 116.96 549.319 120.409 553.434 124.751C557.549 129.093 560.726 134.235 562.77 139.857C564.813 145.479 565.678 151.461 565.312 157.432L549.923 451.14C548.58 476.588 526.651 497.422 501.189 497.422Z" fill="#407BFF"/>
<mask id="mask0_193_449" style="mask-type:luminance" maskUnits="userSpaceOnUse" x="277" y="111" width="289" height="387">
<path d="M501.189 497.422H321.2C315.226 497.457 309.308 496.265 303.813 493.919C298.319 491.573 293.365 488.123 289.258 483.784C285.152 479.445 281.98 474.308 279.94 468.693C277.901 463.078 277.036 457.103 277.4 451.14L292.803 157.432C294.132 131.969 316.061 111.135 341.523 111.135H521.439C527.421 111.09 533.348 112.275 538.852 114.618C544.356 116.96 549.319 120.409 553.434 124.751C557.549 129.093 560.726 134.235 562.77 139.857C564.813 145.479 565.678 151.461 565.312 157.432L549.923 451.14C548.58 476.588 526.651 497.422 501.189 497.422Z" fill="white"/>
</mask>
<g mask="url(#mask0_193_449)">
<path d="M354.911 455.856C312.133 455.856 272.772 439.197 244.068 408.961C215.365 378.724 200.706 338.355 202.955 295.489C204.521 267.042 213.342 239.468 228.578 215.394C243.496 191.796 263.865 172.128 287.97 158.045C288.059 158.009 288.159 158.009 288.248 158.045C288.345 158.073 288.428 158.135 288.481 158.22L303.213 186.325C303.738 186.033 304.264 185.741 304.804 185.464L305.374 185.143C305.464 185.114 305.561 185.114 305.651 185.143C305.699 185.157 305.743 185.181 305.781 185.214C305.819 185.247 305.849 185.287 305.87 185.332L309.9 192.997C309.942 193.081 309.95 193.178 309.923 193.268C309.896 193.357 309.835 193.433 309.754 193.479C272.275 214.43 247.616 253.544 245.426 295.577C243.762 327.084 254.493 356.707 275.633 378.972C286.123 389.997 298.769 398.747 312.784 404.677C326.799 410.607 341.884 413.591 357.101 413.443C357.151 413.442 357.201 413.451 357.246 413.472C357.291 413.492 357.332 413.522 357.364 413.56C357.4 413.593 357.428 413.634 357.446 413.679C357.463 413.725 357.47 413.774 357.466 413.822L355.276 455.578C355.259 455.661 355.213 455.734 355.146 455.785C355.079 455.836 354.995 455.861 354.911 455.856ZM288 158.877C238.9 187.639 206.59 239.966 203.67 295.519C201.436 338.194 215.978 378.301 244.55 408.45C273.122 438.599 312.075 455.038 354.532 455.17L356.678 414.158C341.427 414.252 326.318 411.223 312.282 405.257C298.246 399.291 285.58 390.515 275.064 379.469C253.792 357.043 242.944 327.23 244.652 295.533C246.857 253.368 271.516 214.109 309.038 192.997L305.359 185.975L305.096 186.121C304.468 186.457 303.826 186.792 303.213 187.157C303.119 187.195 303.015 187.195 302.921 187.157C302.828 187.129 302.75 187.066 302.702 186.982L288 158.877Z" fill="#407BFF"/>
<path d="M365.307 471.084C365.202 471.083 365.103 471.041 365.029 470.967C364.997 470.929 364.973 470.884 364.958 470.837C364.943 470.789 364.937 470.739 364.942 470.689L367.278 426.028C367.285 425.936 367.327 425.851 367.394 425.789C367.462 425.726 367.551 425.692 367.643 425.692C437.212 425.692 496.78 369.088 500.43 299.504C500.437 299.413 500.479 299.327 500.546 299.265C500.614 299.203 500.703 299.168 500.795 299.169H511.423C511.471 299.167 511.518 299.174 511.562 299.191C511.606 299.208 511.647 299.233 511.681 299.266C511.715 299.299 511.742 299.338 511.76 299.381C511.779 299.425 511.788 299.472 511.788 299.519C511.876 303.14 511.788 306.819 511.657 310.396H544.492C544.542 310.395 544.592 310.405 544.637 310.425C544.682 310.445 544.723 310.475 544.755 310.513C544.823 310.595 544.859 310.699 544.857 310.805C539.681 352.838 520.004 391.749 489.217 420.83C455.593 452.761 410.435 471.084 365.307 471.084ZM367.993 426.422L365.686 470.354C410.508 470.251 455.33 452.016 488.706 420.29C519.275 391.432 538.853 352.838 544.084 311.126H511.277C511.223 311.126 511.169 311.113 511.121 311.087C511.072 311.062 511.031 311.025 511 310.98C510.963 310.948 510.935 310.907 510.917 310.861C510.899 310.815 510.893 310.766 510.898 310.717C511.088 307.126 511.131 303.417 511.058 299.869H501.13C497.305 369.57 437.679 426.232 367.993 426.422Z" fill="#407BFF"/>
<path d="M511.423 299.899C511.328 299.895 511.237 299.855 511.169 299.788C511.102 299.72 511.062 299.629 511.058 299.534C509.204 225.76 449.738 167.973 375.614 167.973C351.205 168.031 327.192 174.141 305.724 185.756C305.682 185.781 305.636 185.797 305.588 185.804C305.539 185.81 305.49 185.806 305.444 185.792C305.397 185.779 305.354 185.755 305.316 185.724C305.279 185.692 305.249 185.654 305.228 185.61C305.185 185.524 305.176 185.425 305.203 185.333C305.23 185.241 305.291 185.162 305.374 185.113C326.95 173.441 351.083 167.301 375.614 167.243C411.182 166.833 445.467 180.513 470.981 205.297C496.495 230.081 511.166 263.954 511.788 299.519C511.79 299.567 511.783 299.615 511.766 299.66C511.75 299.705 511.724 299.746 511.692 299.781C511.659 299.817 511.62 299.845 511.577 299.865C511.533 299.885 511.486 299.897 511.438 299.899H511.423Z" fill="#407BFF"/>
<path d="M561.808 311.126H544.492C544.396 311.126 544.303 311.088 544.234 311.019C544.166 310.951 544.127 310.858 544.127 310.761C544.127 310.664 544.166 310.571 544.234 310.503C544.303 310.434 544.396 310.396 544.492 310.396H561.457C563.247 277.02 556.052 243.774 540.623 214.124C518.008 171.097 479.42 139.664 431.955 125.589C381.469 110.61 327.726 116.829 280.583 143.109L288.481 158.147C288.523 158.235 288.53 158.335 288.5 158.427C288.47 158.52 288.406 158.597 288.321 158.644C288.278 158.666 288.231 158.68 288.182 158.684C288.134 158.688 288.085 158.683 288.039 158.668C287.993 158.653 287.95 158.629 287.913 158.597C287.876 158.565 287.846 158.527 287.824 158.483L279.78 143.138C279.757 143.097 279.743 143.052 279.738 143.005C279.733 142.959 279.737 142.912 279.751 142.867C279.764 142.822 279.787 142.78 279.817 142.744C279.847 142.708 279.884 142.678 279.926 142.657C303.445 129.411 329.406 121.072 356.24 118.143C381.743 115.3 407.557 117.594 432.16 124.888C479.814 139.021 518.563 170.586 541.266 213.788C556.813 243.655 564.035 277.156 562.173 310.776C562.169 310.87 562.129 310.959 562.061 311.024C561.993 311.09 561.902 311.126 561.808 311.126Z" fill="#407BFF"/>
<path d="M303.067 187.157H302.965C302.872 187.129 302.794 187.066 302.746 186.982L287.824 158.541C287.78 158.454 287.772 158.353 287.802 158.26C287.832 158.167 287.898 158.09 287.985 158.045C288.072 158 288.173 157.992 288.266 158.022C288.36 158.053 288.437 158.118 288.481 158.206L303.213 186.311C303.738 186.019 304.264 185.727 304.804 185.449L305.374 185.128C305.417 185.105 305.464 185.092 305.512 185.088C305.561 185.083 305.609 185.089 305.656 185.104C305.702 185.119 305.745 185.143 305.781 185.175C305.818 185.206 305.848 185.245 305.87 185.289C305.893 185.33 305.907 185.375 305.912 185.422C305.917 185.468 305.913 185.515 305.899 185.56C305.885 185.605 305.863 185.647 305.833 185.683C305.803 185.719 305.766 185.749 305.724 185.77L305.14 186.092C304.512 186.427 303.87 186.763 303.257 187.128C303.197 187.153 303.131 187.163 303.067 187.157Z" fill="#407BFF"/>
<g opacity="0.3">
<path d="M354.911 455.856C312.133 455.856 272.772 439.197 244.068 408.961C215.365 378.724 200.706 338.355 202.955 295.489C204.521 267.042 213.342 239.468 228.578 215.394C243.496 191.796 263.865 172.128 287.97 158.045C288.059 158.009 288.159 158.009 288.248 158.045C288.345 158.073 288.428 158.135 288.481 158.22L303.213 186.325C303.738 186.033 304.264 185.741 304.804 185.464L305.374 185.143C305.464 185.114 305.561 185.114 305.651 185.143C305.699 185.157 305.743 185.181 305.781 185.214C305.819 185.247 305.849 185.287 305.87 185.332L309.9 192.997C309.942 193.081 309.95 193.178 309.923 193.268C309.896 193.357 309.835 193.433 309.754 193.479C272.275 214.43 247.616 253.544 245.426 295.577C243.762 327.084 254.493 356.707 275.633 378.972C286.123 389.997 298.769 398.747 312.784 404.677C326.799 410.607 341.884 413.591 357.101 413.443C357.151 413.442 357.201 413.451 357.246 413.472C357.291 413.492 357.332 413.522 357.364 413.56C357.4 413.593 357.428 413.634 357.446 413.679C357.463 413.725 357.47 413.774 357.466 413.822L355.276 455.578C355.259 455.661 355.213 455.734 355.146 455.785C355.079 455.836 354.995 455.861 354.911 455.856ZM288 158.877C238.9 187.639 206.59 239.966 203.67 295.519C201.436 338.194 215.978 378.301 244.55 408.45C273.122 438.599 312.075 455.038 354.532 455.17L356.678 414.158C341.427 414.252 326.318 411.223 312.282 405.257C298.246 399.291 285.58 390.515 275.064 379.469C253.792 357.043 242.944 327.23 244.652 295.533C246.857 253.368 271.516 214.109 309.038 192.997L305.359 185.975L305.096 186.121C304.468 186.457 303.826 186.792 303.213 187.157C303.119 187.195 303.015 187.195 302.921 187.157C302.828 187.129 302.75 187.066 302.702 186.982L288 158.877Z" fill="white"/>
<path d="M365.307 471.084C365.202 471.083 365.103 471.041 365.029 470.967C364.997 470.929 364.973 470.884 364.958 470.837C364.943 470.789 364.937 470.739 364.942 470.689L367.278 426.028C367.285 425.936 367.327 425.851 367.394 425.789C367.462 425.726 367.551 425.692 367.643 425.692C437.212 425.692 496.78 369.088 500.43 299.504C500.437 299.413 500.479 299.327 500.546 299.265C500.614 299.203 500.703 299.168 500.795 299.169H511.423C511.471 299.167 511.518 299.174 511.562 299.191C511.606 299.208 511.647 299.233 511.681 299.266C511.715 299.299 511.742 299.338 511.76 299.381C511.779 299.425 511.788 299.472 511.788 299.519C511.876 303.14 511.788 306.819 511.657 310.396H544.492C544.542 310.395 544.592 310.405 544.637 310.425C544.682 310.445 544.723 310.475 544.755 310.513C544.823 310.595 544.859 310.699 544.857 310.805C539.681 352.838 520.004 391.749 489.217 420.83C455.593 452.761 410.435 471.084 365.307 471.084ZM367.993 426.422L365.686 470.354C410.508 470.251 455.33 452.016 488.706 420.29C519.275 391.432 538.853 352.838 544.084 311.126H511.277C511.223 311.126 511.169 311.113 511.121 311.087C511.072 311.062 511.031 311.025 511 310.98C510.963 310.948 510.935 310.907 510.917 310.861C510.899 310.815 510.893 310.766 510.898 310.717C511.088 307.126 511.131 303.417 511.058 299.869H501.13C497.305 369.57 437.679 426.232 367.993 426.422Z" fill="white"/>
<path d="M511.423 299.899C511.328 299.895 511.237 299.855 511.169 299.788C511.102 299.72 511.062 299.629 511.058 299.534C509.204 225.76 449.738 167.973 375.614 167.973C351.205 168.031 327.192 174.141 305.724 185.756C305.682 185.781 305.636 185.797 305.588 185.804C305.539 185.81 305.49 185.806 305.444 185.792C305.397 185.779 305.354 185.755 305.316 185.724C305.279 185.692 305.249 185.654 305.228 185.61C305.185 185.524 305.176 185.425 305.203 185.333C305.23 185.241 305.291 185.162 305.374 185.113C326.95 173.441 351.083 167.301 375.614 167.243C411.182 166.833 445.467 180.513 470.981 205.297C496.495 230.081 511.166 263.954 511.788 299.519C511.79 299.567 511.783 299.615 511.766 299.66C511.75 299.705 511.724 299.746 511.692 299.781C511.659 299.817 511.62 299.845 511.577 299.865C511.533 299.885 511.486 299.897 511.438 299.899H511.423Z" fill="white"/>
<path d="M561.808 311.126H544.492C544.396 311.126 544.303 311.088 544.234 311.019C544.166 310.951 544.127 310.858 544.127 310.761C544.127 310.664 544.166 310.571 544.234 310.503C544.303 310.434 544.396 310.396 544.492 310.396H561.457C563.247 277.02 556.052 243.774 540.623 214.124C518.008 171.097 479.42 139.664 431.955 125.589C381.469 110.61 327.726 116.829 280.583 143.109L288.481 158.147C288.523 158.235 288.53 158.335 288.5 158.427C288.47 158.52 288.406 158.597 288.321 158.644C288.278 158.666 288.231 158.68 288.182 158.684C288.134 158.688 288.085 158.683 288.039 158.668C287.993 158.653 287.95 158.629 287.913 158.597C287.876 158.565 287.846 158.527 287.824 158.483L279.78 143.138C279.757 143.097 279.743 143.052 279.738 143.005C279.733 142.959 279.737 142.912 279.751 142.867C279.764 142.822 279.787 142.78 279.817 142.744C279.847 142.708 279.884 142.678 279.926 142.657C303.445 129.411 329.406 121.072 356.24 118.143C381.743 115.3 407.557 117.594 432.16 124.888C479.814 139.021 518.563 170.586 541.266 213.788C556.813 243.655 564.035 277.156 562.173 310.776C562.169 310.87 562.129 310.959 562.061 311.024C561.993 311.09 561.902 311.126 561.808 311.126Z" fill="white"/>
<path d="M303.067 187.157H302.965C302.872 187.129 302.794 187.066 302.746 186.982L287.824 158.541C287.78 158.454 287.772 158.353 287.802 158.26C287.832 158.167 287.898 158.09 287.985 158.045C288.072 158 288.173 157.992 288.266 158.022C288.36 158.053 288.437 158.118 288.481 158.206L303.213 186.311C303.738 186.019 304.264 185.727 304.804 185.449L305.374 185.128C305.417 185.105 305.464 185.092 305.512 185.088C305.561 185.083 305.609 185.089 305.656 185.104C305.702 185.119 305.745 185.143 305.781 185.175C305.818 185.206 305.848 185.245 305.87 185.289C305.893 185.33 305.907 185.375 305.912 185.422C305.917 185.468 305.913 185.515 305.899 185.56C305.885 185.605 305.863 185.647 305.833 185.683C305.803 185.719 305.766 185.749 305.724 185.77L305.14 186.092C304.512 186.427 303.87 186.763 303.257 187.128C303.197 187.153 303.131 187.163 303.067 187.157Z" fill="white"/>
</g>
</g>
<path d="M366.212 395.207L364.752 422.028C307.972 422.028 264.333 375.979 267.311 319.214C269.312 281.167 291.737 247.923 323.405 230.154L335.61 253.383C323.719 259.978 313.684 269.468 306.436 280.973C299.188 292.478 294.961 305.626 294.146 319.2C292 361.175 324.251 395.207 366.212 395.207Z" fill="#407BFF"/>
<path opacity="0.6" d="M366.212 395.207L364.752 422.028C307.972 422.028 264.333 375.979 267.311 319.214C269.312 281.167 291.737 247.923 323.405 230.154L335.61 253.383C323.719 259.978 313.684 269.468 306.436 280.973C299.188 292.478 294.961 305.626 294.146 319.2C292 361.175 324.251 395.207 366.212 395.207Z" fill="black"/>
<path d="M487.26 321.799C485.422 351.367 472.463 379.145 450.986 399.552C429.51 419.959 401.106 431.483 371.482 431.81L372.942 403.106C417.837 403.106 456.162 366.694 458.513 321.799H487.26Z" fill="#407BFF"/>
<path opacity="0.3" d="M487.26 321.799C485.422 351.367 472.463 379.145 450.986 399.552C429.51 419.959 401.106 431.483 371.482 431.81L372.942 403.106C417.837 403.106 456.162 366.694 458.513 321.799H487.26Z" fill="black"/>
<path d="M497.758 329.026H465.287C467.945 278.174 428.904 237.046 378.111 237.046C361.745 237.04 345.657 241.281 331.42 249.353L316.659 221.219C377.585 187.084 453.228 207.67 484.297 266.8C494.288 285.958 498.938 307.452 497.758 329.026Z" fill="#FAFAFA"/>
<path d="M494.21 410.026H464.309L461.083 471.609H490.983L494.21 410.026Z" fill="#FAFAFA"/>
<path d="M536.886 389.674H506.985L502.692 471.609H532.593L536.886 389.674Z" fill="#407BFF"/>
<path opacity="0.6" d="M536.886 389.674H506.985L502.692 471.609H532.593L536.886 389.674Z" fill="black"/>
<path d="M577.415 410.026H547.514L544.288 471.609H574.189L577.415 410.026Z" fill="#407BFF"/>
<path opacity="0.3" d="M577.415 410.026H547.514L544.288 471.609H574.189L577.415 410.026Z" fill="black"/>
<path d="M573.911 476.851H460.805L460.878 475.449H573.984L573.911 476.851Z" fill="#263238"/>
<path opacity="0.8" d="M589.198 216.299H458.82L462.674 142.642H593.067L589.198 216.299Z" fill="#FAFAFA"/>
<path d="M461.17 171.346L458.82 216.299H589.198L592.118 160.483C570.48 160.483 557.647 185.113 530.885 185.113C504.123 185.113 496.78 171.346 461.17 171.346Z" fill="#407BFF"/>
<path opacity="0.1" d="M461.17 171.346L458.82 216.299H589.198L592.118 160.483C570.48 160.483 557.647 185.113 530.885 185.113C504.123 185.113 496.78 171.346 461.17 171.346Z" fill="black"/>
<path d="M460.046 192.837C489.348 192.837 499.875 176.777 516.329 176.777C532.783 176.777 539.981 193.669 560.479 193.669C581.854 193.669 591.139 180.383 591.139 180.383L589.256 216.328H458.878L460.046 192.837Z" fill="#407BFF"/>
<path opacity="0.5" d="M460.046 192.837C489.348 192.837 499.875 176.777 516.329 176.777C532.783 176.777 539.981 193.669 560.479 193.669C581.854 193.669 591.139 180.383 591.139 180.383L589.256 216.328H458.878L460.046 192.837Z" fill="black"/>
<path d="M202.195 249.368C200.268 251.952 198.122 254.828 196.18 257.646C194.238 260.464 192.282 263.34 190.442 266.231C186.762 271.857 183.54 277.77 180.806 283.912L180.325 285.021L180.091 285.576C179.986 285.805 179.932 286.054 179.93 286.306C179.893 287.496 180.026 288.686 180.325 289.839C181.104 292.913 182.164 295.909 183.493 298.789C186.385 305.097 189.591 311.256 193.1 317.243L186.778 322.237C181.444 316.912 176.687 311.04 172.587 304.717C170.38 301.314 168.549 297.681 167.126 293.883C166.283 291.606 165.757 289.223 165.564 286.802C165.456 285.257 165.564 283.704 165.885 282.189C165.973 281.765 166.104 281.313 166.236 280.889L166.469 280.174L166.936 278.714C167.535 276.801 168.265 275.006 168.966 273.181C169.667 271.356 170.426 269.604 171.346 267.895C172.952 264.406 174.806 261.092 176.689 257.821C178.573 254.551 180.617 251.397 182.748 248.317C183.814 246.769 184.909 245.251 186.019 243.732C187.128 242.214 188.238 240.812 189.552 239.177L202.195 249.368Z" fill="#E58A7B"/>
<path d="M190.807 314.951L198.648 316.294L191.683 328.091C191.683 328.091 186.223 325.463 185.23 320.368L190.807 314.951Z" fill="#E58A7B"/>
<path d="M207.116 320.514L200.911 330.004L191.683 328.091L198.648 316.294L207.116 320.514Z" fill="#E58A7B"/>
<path d="M242.623 192.136C242.623 192.997 243.075 193.698 243.645 193.698C244.214 193.698 244.667 192.997 244.667 192.136C244.667 191.275 244.214 190.574 243.645 190.574C243.075 190.574 242.623 191.26 242.623 192.136Z" fill="#263238"/>
<path d="M243.002 193.698C244.036 196.342 245.426 198.833 247.134 201.1C246.544 201.523 245.868 201.811 245.154 201.945C244.44 202.078 243.706 202.054 243.002 201.874V193.698Z" fill="#DF5753"/>
<path d="M239.557 187.347C239.475 187.349 239.395 187.33 239.323 187.292C239.252 187.254 239.191 187.197 239.148 187.128C239.107 187.076 239.077 187.015 239.061 186.95C239.044 186.885 239.041 186.818 239.052 186.752C239.063 186.686 239.088 186.623 239.124 186.567C239.161 186.512 239.209 186.464 239.265 186.427C239.906 185.936 240.657 185.608 241.453 185.471C242.249 185.333 243.066 185.391 243.835 185.639C243.957 185.691 244.055 185.788 244.107 185.911C244.159 186.034 244.161 186.172 244.112 186.296C244.091 186.359 244.057 186.417 244.013 186.466C243.969 186.515 243.915 186.555 243.854 186.582C243.794 186.609 243.729 186.624 243.663 186.625C243.596 186.626 243.531 186.613 243.47 186.588C242.857 186.401 242.209 186.363 241.579 186.477C240.95 186.592 240.356 186.855 239.849 187.245C239.766 187.312 239.663 187.349 239.557 187.347Z" fill="#263238"/>
<path d="M214.693 202.108C216.241 209.963 217.774 224.329 212.284 229.57C212.284 229.57 214.43 237.527 229.016 237.527C245.076 237.527 236.666 229.57 236.666 229.57C227.906 227.483 228.14 220.986 229.673 214.897L214.693 202.108Z" fill="#E58A7B"/>
<path d="M210.24 232.301C209.087 229.789 207.831 226.899 210.444 225.993C213.364 225.001 229.089 223.993 234.52 225.847C235.236 226.046 235.906 226.385 236.491 226.844C237.075 227.303 237.563 227.874 237.926 228.523C238.288 229.172 238.518 229.887 238.603 230.625C238.687 231.364 238.625 232.112 238.418 232.826L210.24 232.301Z" fill="#407BFF"/>
<path d="M176.412 598.6C175.469 598.595 174.53 598.492 173.609 598.293C173.561 598.285 173.518 598.262 173.484 598.228C173.45 598.194 173.427 598.151 173.419 598.104C173.409 598.055 173.414 598.004 173.432 597.957C173.45 597.911 173.481 597.87 173.521 597.841C173.652 597.753 176.616 595.738 178.178 596.089C178.346 596.124 178.504 596.196 178.64 596.299C178.776 596.403 178.888 596.535 178.967 596.687C179.092 596.865 179.159 597.076 179.159 597.293C179.159 597.51 179.092 597.722 178.967 597.899C178.609 598.179 178.198 598.386 177.76 598.506C177.321 598.626 176.863 598.658 176.412 598.6ZM174.324 597.928C175.93 598.191 178.12 598.191 178.573 597.578C178.573 597.578 178.762 597.344 178.573 596.936C178.525 596.846 178.459 596.769 178.378 596.708C178.297 596.648 178.204 596.606 178.105 596.585C176.737 596.656 175.42 597.134 174.324 597.958V597.928Z" fill="#407BFF"/>
<path d="M173.74 598.337C173.697 598.352 173.651 598.352 173.609 598.337C173.568 598.314 173.535 598.28 173.514 598.238C173.494 598.197 173.486 598.15 173.492 598.104C173.492 597.972 173.755 594.877 174.952 593.855C175.102 593.733 175.274 593.641 175.46 593.586C175.645 593.531 175.84 593.513 176.032 593.534C176.225 593.534 176.412 593.6 176.561 593.723C176.711 593.845 176.812 594.016 176.85 594.205C177.069 595.403 174.923 597.739 173.813 598.352L173.74 598.337ZM175.901 593.957C175.687 593.961 175.481 594.038 175.317 594.176C174.57 595.145 174.128 596.314 174.047 597.534C175.156 596.702 176.529 594.935 176.397 594.22C176.397 594.22 176.397 594.001 176.017 593.957H175.901Z" fill="#407BFF"/>
<path d="M240.812 598.6C239.71 598.601 238.61 598.498 237.527 598.293C237.475 598.287 237.427 598.264 237.39 598.227C237.353 598.19 237.329 598.141 237.323 598.089C237.315 598.039 237.321 597.987 237.342 597.94C237.363 597.893 237.397 597.854 237.44 597.826C237.6 597.739 241.353 595.607 243.134 596.089C243.302 596.126 243.461 596.199 243.599 596.302C243.738 596.406 243.853 596.537 243.937 596.687C244.053 596.849 244.116 597.043 244.116 597.242C244.116 597.441 244.053 597.635 243.937 597.797C243.513 598.439 242.185 598.6 240.812 598.6ZM238.345 597.928C240.36 598.206 243.061 598.162 243.557 597.49C243.557 597.403 243.674 597.257 243.557 596.936C243.504 596.846 243.432 596.768 243.346 596.707C243.261 596.647 243.163 596.605 243.061 596.585C241.834 596.293 239.44 597.374 238.345 597.958V597.928Z" fill="#407BFF"/>
<path d="M237.571 598.337C237.524 598.352 237.473 598.352 237.425 598.337C237.389 598.311 237.36 598.276 237.342 598.235C237.324 598.193 237.317 598.148 237.323 598.104C237.418 596.583 238.002 595.134 238.987 593.972C239.183 593.795 239.416 593.665 239.668 593.589C239.921 593.513 240.187 593.494 240.447 593.534C241.148 593.607 241.353 593.957 241.396 594.249C241.586 595.461 239.031 597.782 237.732 598.352L237.571 598.337ZM240.185 593.957C239.86 593.953 239.547 594.073 239.309 594.293C238.486 595.211 237.975 596.366 237.849 597.593C239.163 596.804 240.915 594.979 240.769 594.249C240.769 594.249 240.769 594.016 240.272 593.957H240.185Z" fill="#407BFF"/>
<path d="M225.774 598.074H236.505L237.571 573.24H226.84L225.774 598.074Z" fill="#E58A7B"/>
<path d="M161.374 598.074H172.105L177.492 573.24H166.776L161.374 598.074Z" fill="#E58A7B"/>
<path d="M172.864 596.833H160.819C160.604 596.835 160.396 596.91 160.229 597.045C160.062 597.18 159.945 597.368 159.899 597.578L157.782 607.112C157.734 607.344 157.738 607.584 157.796 607.814C157.853 608.044 157.961 608.259 158.113 608.441C158.265 608.623 158.455 608.769 158.671 608.868C158.887 608.966 159.122 609.015 159.359 609.01C163.564 608.937 165.608 608.689 170.908 608.689C174.163 608.689 180.879 609.039 185.391 609.039C189.902 609.039 190.472 604.659 188.632 604.177C180.368 602.367 177.259 599.87 174.601 597.505C174.128 597.069 173.507 596.829 172.864 596.833Z" fill="#263238"/>
<path d="M236.432 596.833H224.752C224.537 596.835 224.329 596.909 224.162 597.045C223.995 597.18 223.879 597.368 223.832 597.578L221.716 607.112C221.665 607.342 221.667 607.58 221.721 607.809C221.776 608.039 221.882 608.252 222.03 608.435C222.179 608.617 222.367 608.764 222.581 608.864C222.794 608.963 223.028 609.013 223.263 609.01C227.483 608.937 233.585 608.689 238.9 608.689C245.105 608.689 250.477 609.039 257.748 609.039C262.128 609.039 263.384 604.659 261.544 604.177C253.149 602.338 246.302 602.148 239.046 597.68C238.273 597.155 237.366 596.861 236.432 596.833Z" fill="#263238"/>
<path d="M250.609 235.688C256.887 238.783 263.413 241.951 269.852 244.915C276.29 247.879 282.802 250.755 289.27 253.222L291.679 254.084L292.292 254.303H292.438C292.438 254.303 292.438 254.303 292.511 254.376C293.384 254.466 294.267 254.362 295.095 254.069C297.999 253.1 300.774 251.782 303.359 250.142C309.26 246.435 314.93 242.374 320.338 237.98L326.251 243.44C321.746 249.673 316.506 255.34 310.644 260.318C307.427 263.096 303.828 265.397 299.957 267.151C297.42 268.299 294.668 268.897 291.883 268.903C291.001 268.886 290.121 268.793 289.255 268.625L288.554 268.465L288.072 268.333L287.372 268.144L284.568 267.37C277.342 265.206 270.245 262.632 263.311 259.661C256.42 256.741 249.791 253.617 243.09 250.069L250.609 235.688Z" fill="#E58A7B"/>
<path d="M193.085 231.994C183.025 234.301 171.491 261.705 171.491 261.705L191.683 275.546C196.71 268.343 201.171 260.763 205.028 252.872C210.984 240.331 203.363 229.643 193.085 231.994Z" fill="#263238"/>
<path d="M200.283 249.47L190.734 274.889L191.683 275.546C191.683 275.546 195.815 269.706 200.283 261.924V249.47Z" fill="#407BFF"/>
<path opacity="0.8" d="M200.283 249.47L190.734 274.889L191.683 275.546C191.683 275.546 195.815 269.706 200.283 261.924V249.47Z" fill="black"/>
<path d="M253.164 232.549C253.164 232.549 264.581 245.441 253.806 325.259H196.428C196.034 316.499 201.568 273.487 193.085 231.994C199.426 230.773 205.839 229.963 212.284 229.57C220.405 229.103 228.545 229.103 236.666 229.57C242.235 230.131 247.751 231.127 253.164 232.549Z" fill="#263238"/>
<path d="M258.186 257.106L244.389 254.186C244.594 254.434 253.149 265.165 258.391 271.837C258.493 266.143 258.42 261.34 258.186 257.106Z" fill="#407BFF"/>
<path opacity="0.8" d="M258.186 257.106L244.389 254.186C244.594 254.434 253.149 265.165 258.391 271.837C258.493 266.143 258.42 261.34 258.186 257.106Z" fill="black"/>
<path d="M235.177 246.828C238.33 256.58 270.217 267.268 270.217 267.268L279.707 244.769C271.705 239.917 263.209 235.933 254.361 232.885C241.426 228.767 231.702 236.126 235.177 246.828Z" fill="#263238"/>
<path d="M319.433 239.44L322.572 228.563L335.055 234.213C335.055 234.213 332.296 242.652 324.748 244.667L319.433 239.44Z" fill="#E58A7B"/>
<path d="M330.047 219.496L338.53 227.862L335.055 234.155L322.572 228.505L330.047 219.496Z" fill="#E58A7B"/>
<path d="M237.571 573.254L237.016 586.044H226.285L226.84 573.254H237.571Z" fill="#CF6F64"/>
<path d="M166.761 573.254H177.492L174.718 586.044H163.987L166.761 573.254Z" fill="#CF6F64"/>
<path d="M213.773 190.296C214.416 200.925 214.255 207.174 219.613 212.634C227.687 220.84 240.798 215.963 243.338 205.334C245.616 195.786 244.17 180.018 233.761 175.784C231.471 174.843 228.979 174.504 226.521 174.798C224.063 175.092 221.721 176.01 219.718 177.464C217.715 178.918 216.117 180.861 215.077 183.107C214.036 185.353 213.587 187.828 213.773 190.296Z" fill="#E58A7B"/>
<path d="M234.418 183.23C242.433 185.595 249.149 174.222 247.908 182.266C246.667 190.311 255.412 189.435 255.412 189.435C255.412 189.435 248.55 186.836 256.712 180.062C266.684 171.784 252.522 166.703 246.317 171.2C237.965 177.273 236.33 166.557 225.57 163.681C218.27 161.753 209.291 166.338 209.13 171.608C208.926 178.047 203.393 172.864 202.984 182.442C202.706 188.69 210.152 209.291 218.182 209.992C230.271 211.058 234.33 195.728 234.418 183.23Z" fill="#263238"/>
<path d="M228.11 193.392C228.683 195.986 230.1 198.317 232.14 200.02C234.841 202.21 237.002 200.254 236.943 197.1C236.87 194.253 235.396 189.683 232.359 188.72C229.322 187.756 227.424 190.282 228.11 193.392Z" fill="#E58A7B"/>
<path d="M211.466 177.594C210.157 175.608 209.363 173.326 209.156 170.955C208.95 168.584 209.337 166.2 210.284 164.016C210.284 164.016 198.867 172.616 211.466 177.594Z" fill="#263238"/>
<path d="M202.327 176.543C203.458 176.064 204.693 175.879 205.915 176.004C207.138 176.129 208.309 176.56 209.32 177.259C209.32 177.259 206.079 170.645 202.327 176.543Z" fill="#263238"/>
<path d="M233.454 325.259C233.454 325.259 221.278 407.223 214.62 438C207.32 471.58 179.741 583.65 179.741 583.65H160.06C160.06 583.65 178.251 474.266 182.5 440.92C187.026 404.785 196.501 325.2 196.501 325.2L233.454 325.259Z" fill="#407BFF"/>
<path d="M182.85 576.335C182.938 576.335 180.821 583.883 180.821 583.883H158.717L159.125 577.153L182.85 576.335Z" fill="#407BFF"/>
<path opacity="0.2" d="M182.85 576.335C182.938 576.335 180.821 583.883 180.821 583.883H158.717L159.125 577.153L182.85 576.335Z" fill="black"/>
<path d="M225.76 354.459C211.685 357.218 213.175 409.705 214.868 436.701C219 417.56 224.84 380.899 228.928 354.78C227.939 354.316 226.822 354.202 225.76 354.459Z" fill="#407BFF"/>
<path opacity="0.2" d="M225.76 354.459C211.685 357.218 213.175 409.705 214.868 436.701C219 417.56 224.84 380.899 228.928 354.78C227.939 354.316 226.822 354.202 225.76 354.459Z" fill="black"/>
<path d="M253.806 325.259C253.806 325.259 255.266 405.442 254.113 438.161C252.901 472.179 240.973 583.577 240.973 583.577H222.854C222.854 583.577 222.183 474.164 221.394 440.759C220.518 404.332 216.124 325.259 216.124 325.259H253.806Z" fill="#407BFF"/>
<path d="M237.235 570.524C237.186 570.517 237.142 570.493 237.109 570.455C237.077 570.417 237.06 570.369 237.06 570.32C240.272 539.485 247.82 464.893 248.74 438.146C249.718 410.742 248.828 349.539 248.536 331.42C248.536 331.397 248.54 331.374 248.549 331.353C248.558 331.332 248.571 331.312 248.587 331.296C248.603 331.28 248.623 331.267 248.644 331.258C248.665 331.249 248.688 331.245 248.711 331.245C248.759 331.245 248.805 331.263 248.84 331.295C248.875 331.328 248.897 331.372 248.901 331.42C249.193 349.524 250.083 410.742 249.105 438.161C248.156 464.922 240.608 539.528 237.425 570.364C237.423 570.387 237.417 570.409 237.406 570.43C237.396 570.45 237.381 570.469 237.364 570.483C237.346 570.498 237.326 570.51 237.304 570.517C237.281 570.524 237.258 570.526 237.235 570.524Z" fill="#407BFF"/>
<path opacity="0.2" d="M237.235 570.524C237.186 570.517 237.142 570.493 237.109 570.455C237.077 570.417 237.06 570.369 237.06 570.32C240.272 539.485 247.82 464.893 248.74 438.146C249.718 410.742 248.828 349.539 248.536 331.42C248.536 331.397 248.54 331.374 248.549 331.353C248.558 331.332 248.571 331.312 248.587 331.296C248.603 331.28 248.623 331.267 248.644 331.258C248.665 331.249 248.688 331.245 248.711 331.245C248.759 331.245 248.805 331.263 248.84 331.295C248.875 331.328 248.897 331.372 248.901 331.42C249.193 349.524 250.083 410.742 249.105 438.161C248.156 464.922 240.608 539.528 237.425 570.364C237.423 570.387 237.417 570.409 237.406 570.43C237.396 570.45 237.381 570.469 237.364 570.483C237.346 570.498 237.326 570.51 237.304 570.517C237.281 570.524 237.258 570.526 237.235 570.524Z" fill="black"/>
<path d="M244.506 576.335C244.594 576.335 243.484 583.883 243.484 583.883H221.38L220.781 577.153L244.506 576.335Z" fill="#407BFF"/>
<path opacity="0.2" d="M244.506 576.335C244.594 576.335 243.484 583.883 243.484 583.883H221.38L220.781 577.153L244.506 576.335Z" fill="black"/>
</svg>
