<svg width="900" height="900" viewBox="0 0 900 900" fill="none" xmlns="http://www.w3.org/2000/svg">
<path d="M256.068 640.566C256.068 640.566 123.948 523.278 101.664 389.664C79.3799 256.05 193.716 321.372 229.338 318.402C264.96 315.432 242.712 184.806 345.15 138.78C447.588 92.7542 480.24 166.986 523.35 205.578C566.46 244.17 613.908 189.252 692.55 187.776C771.192 186.3 774.198 260.514 751.95 313.956C729.702 367.398 702.954 459.45 725.22 460.926C747.486 462.402 801 432.72 803.88 514.368C806.76 596.016 745.974 680.652 659.88 699.948C573.786 719.244 524.88 649.548 456.48 652.446C388.08 655.344 332.622 733.86 256.068 640.566Z" fill="#407BFF"/>
<path opacity="0.6" d="M256.068 640.566C256.068 640.566 123.948 523.278 101.664 389.664C79.3799 256.05 193.716 321.372 229.338 318.402C264.96 315.432 242.712 184.806 345.15 138.78C447.588 92.7542 480.24 166.986 523.35 205.578C566.46 244.17 613.908 189.252 692.55 187.776C771.192 186.3 774.198 260.514 751.95 313.956C729.702 367.398 702.954 459.45 725.22 460.926C747.486 462.402 801 432.72 803.88 514.368C806.76 596.016 745.974 680.652 659.88 699.948C573.786 719.244 524.88 649.548 456.48 652.446C388.08 655.344 332.622 733.86 256.068 640.566Z" fill="white"/>
<g opacity="0.5">
<path d="M241.218 780.12C303.529 780.12 354.042 767.492 354.042 751.914C354.042 736.336 303.529 723.708 241.218 723.708C178.907 723.708 128.394 736.336 128.394 751.914C128.394 767.492 178.907 780.12 241.218 780.12Z" fill="#407BFF"/>
<path d="M476.532 735.57C628.621 735.57 751.914 717.292 751.914 694.746C751.914 672.199 628.621 653.922 476.532 653.922C324.443 653.922 201.15 672.199 201.15 694.746C201.15 717.292 324.443 735.57 476.532 735.57Z" fill="#407BFF"/>
</g>
<path d="M314.028 229.302L454.32 205.02L588.672 230.688L716.922 209.628V680.958L588.87 704.358L454.32 679.77L311.976 702.162L206.514 679.104V211.464L314.028 229.302Z" fill="#407BFF" stroke="#263238" stroke-miterlimit="10"/>
<path d="M243.36 274.68L280.008 280.8C280.139 280.818 280.272 280.818 280.404 280.8C280.9 280.797 281.377 280.606 281.738 280.265C282.099 279.925 282.317 279.46 282.349 278.965C282.381 278.469 282.224 277.98 281.91 277.596C281.596 277.212 281.148 276.961 280.656 276.894L243.99 270.882C243.731 270.83 243.464 270.83 243.205 270.883C242.947 270.935 242.701 271.04 242.484 271.19C242.266 271.34 242.081 271.533 241.94 271.756C241.799 271.979 241.704 272.229 241.662 272.49C241.62 272.75 241.63 273.017 241.693 273.273C241.756 273.53 241.871 273.771 242.029 273.982C242.188 274.194 242.387 274.371 242.616 274.503C242.845 274.635 243.098 274.72 243.36 274.752V274.68Z" fill="#263238"/>
<path d="M303.804 511.326L284.13 500.724L250.83 579.708L313.056 610.2V513.126C309.86 513.483 306.632 512.855 303.804 511.326Z" fill="#263238"/>
<path d="M249.12 481.824L221.67 548.55V628.614L277.164 496.962L249.12 481.824Z" fill="#263238"/>
<path d="M221.67 648.882V665.766L313.056 688.248V614.592L249.3 583.326L221.67 648.882Z" fill="#263238"/>
<path d="M221.67 458.082L307.53 504.414C309.227 505.305 311.187 505.56 313.056 505.134V402.894L221.67 359.442V458.082Z" fill="#263238"/>
<path d="M245.016 297.756C244.757 297.704 244.49 297.704 244.231 297.757C243.973 297.81 243.727 297.914 243.51 298.064C243.292 298.214 243.108 298.407 242.966 298.63C242.825 298.853 242.731 299.103 242.688 299.364C242.646 299.624 242.656 299.891 242.719 300.147C242.782 300.404 242.897 300.645 243.055 300.856C243.214 301.068 243.413 301.245 243.642 301.377C243.871 301.509 244.124 301.594 244.386 301.626L281.034 307.656C281.165 307.674 281.299 307.674 281.43 307.656C281.926 307.653 282.403 307.462 282.764 307.121C283.125 306.781 283.343 306.316 283.375 305.821C283.407 305.325 283.25 304.836 282.936 304.452C282.622 304.068 282.174 303.817 281.682 303.75L245.016 297.756Z" fill="#263238"/>
<path d="M244.512 284.274C244.257 284.231 243.995 284.239 243.743 284.298C243.491 284.356 243.253 284.464 243.042 284.614C242.832 284.765 242.653 284.955 242.516 285.175C242.379 285.394 242.286 285.639 242.244 285.894C242.201 286.149 242.209 286.41 242.268 286.662C242.326 286.915 242.434 287.153 242.584 287.363C242.735 287.574 242.925 287.753 243.145 287.89C243.364 288.027 243.609 288.119 243.864 288.162L280.53 294.192H280.926C281.421 294.184 281.895 293.99 282.252 293.648C282.61 293.306 282.825 292.841 282.855 292.347C282.884 291.853 282.726 291.366 282.412 290.984C282.098 290.602 281.65 290.352 281.16 290.286L244.512 284.274Z" fill="#263238"/>
<path d="M598.356 300.6C595.608 302.445 592.698 304.035 589.662 305.352V422.496L649.98 265.68L598.356 300.6Z" fill="#263238"/>
<path d="M644.526 401.094L682.92 308.718L663.462 252.576L618.156 370.386L644.526 401.094Z" fill="#263238"/>
<path d="M652.446 259.2L663.246 231.21L589.662 244.8V301.104C591.913 300.023 594.084 298.784 596.16 297.396L652.446 259.2Z" fill="#263238"/>
<path d="M221.67 467.028V527.868L242.154 478.062L221.67 467.028Z" fill="#263238"/>
<path d="M339.012 479.808L325.224 505.008C324.16 506.945 322.702 508.638 320.944 509.977C319.187 511.316 317.168 512.273 315.018 512.784V608.76L397.296 538.758L339.012 479.808Z" fill="#263238"/>
<path d="M511.2 520.524C512.562 520.725 513.952 520.566 515.234 520.064C516.516 519.562 517.645 518.734 518.508 517.662L578.412 443.862C568.818 423.324 554.67 409.572 536.346 403.002C505.206 391.824 470.286 404.28 459.63 408.672L504.972 515.7C505.497 516.978 506.349 518.097 507.442 518.943C508.535 519.79 509.831 520.335 511.2 520.524Z" fill="#263238"/>
<path d="M478.494 631.908C492.534 624.42 566.694 584.946 567.54 584.532C571.374 582.498 573.48 580.248 573.984 577.692C575.208 571.536 567.756 562.536 561.168 554.598C555.444 547.686 550.044 541.152 548.712 535.068C545.112 518.508 555.39 511.776 563.652 506.358C567.252 503.982 570.726 501.732 572.652 498.96C576.36 493.56 569.862 480.69 564.876 473.148L524.7 522.63C523.222 524.457 521.354 525.93 519.233 526.943C517.112 527.955 514.792 528.48 512.442 528.48C511.683 528.48 510.925 528.426 510.174 528.318C507.462 527.952 504.893 526.882 502.724 525.215C500.554 523.547 498.859 521.341 497.808 518.814L455.292 418.5V586.206L457.992 588.942L478.494 631.908Z" fill="#263238"/>
<path d="M393.012 346.5C391.897 352.706 390.339 358.823 388.35 364.806C382.518 380.808 322.704 400.68 315 403.2V504.468C316.399 503.744 317.547 502.615 318.294 501.228L393.894 363.15C395.117 360.927 396.855 359.03 398.962 357.617C401.07 356.204 403.485 355.317 406.006 355.03C408.526 354.742 411.079 355.063 413.45 355.966C415.822 356.868 417.942 358.326 419.634 360.216L453.294 398.016V277.2C440.334 281.34 427.338 285.93 416.772 293.256C401.49 303.84 396.594 328.5 393.012 346.5Z" fill="#263238"/>
<path d="M682.182 444.96L701.766 467.766V401.256L682.506 445.104L682.182 444.96Z" fill="#263238"/>
<path d="M628.092 567C627.441 569.134 627.456 571.416 628.134 573.541C628.813 575.667 630.123 577.535 631.89 578.898L675.27 612.486C682.247 617.94 686.933 625.805 688.409 634.538C689.884 643.27 688.042 652.238 683.244 659.682L674.982 672.282L664.308 674.244L676.656 655.326C680.384 649.543 681.815 642.576 680.67 635.792C679.524 629.008 675.884 622.897 670.464 618.66L627.066 585.18C624.019 582.81 621.77 579.567 620.618 575.883C619.466 572.2 619.468 568.252 620.622 564.57L665.298 437.4L614.898 378.738L590.994 441L589.662 442.638V688.77L701.748 667.512V479.844L671.148 444.276L628.092 567Z" fill="#263238"/>
<path d="M542.754 303.678L477.378 269.208C471.618 271.386 465.408 273.33 459.018 275.346L455.292 276.516V400.176L456.48 401.508C467.82 396.702 504.756 383.328 539.028 395.604C558.378 402.534 573.48 416.502 584.028 437.148L584.172 436.986L587.772 427.644V306.234C580.53 309.075 572.759 310.317 564.993 309.876C557.226 309.434 549.646 307.32 542.772 303.678H542.754Z" fill="#263238"/>
<path d="M455.292 268.2L456.66 267.768C469.008 263.88 480.672 260.226 488.862 254.862C496.152 250.074 503.892 240.3 510.462 230.436L518.85 232.038C511.434 243.54 502.2 255.6 493.2 261.522C489.702 263.753 486.016 265.675 482.184 267.264L544.626 300.204C551.221 303.695 558.513 305.668 565.968 305.979C573.424 306.29 580.855 304.932 587.718 302.004V244.8L455.328 219.96L455.292 268.2Z" fill="#263238"/>
<path d="M650.268 407.79L676.746 438.624L701.766 381.69V363.096L686.79 319.896L650.268 407.79Z" fill="#263238"/>
<path d="M672.3 229.608L667.512 242.028L691.02 308.088L701.766 339.066V224.19L672.3 229.608Z" fill="#263238"/>
<path d="M315 394.722C340.2 385.146 377.694 369.27 381.15 361.566C382.644 358.254 383.868 352.098 385.272 344.97C389.106 325.656 394.272 299.196 412.272 286.74C424.44 278.298 438.984 273.402 453.294 268.884V220.086L315 243V394.722Z" fill="#263238"/>
<path d="M579.132 503.406C576.342 507.456 572.076 510.246 567.972 512.946C559.278 518.634 554.058 522.666 556.398 533.376C557.334 537.606 562.374 543.69 567.198 549.576C575.28 559.332 583.614 569.376 581.598 579.222C580.626 584.172 577.098 588.222 571.14 591.48L481.878 639L498.528 673.92L587.268 689.202H587.682V445.05L570.042 466.776C573.678 471.906 586.926 492.066 579.132 503.406Z" fill="#263238"/>
<path d="M400.068 541.548L338.94 593.55L383.886 677.538L379.764 678.186L335.88 596.16L315.018 613.908V688.428L453.33 666.612V597.438L451.458 593.532L400.068 541.548Z" fill="#263238"/>
<path d="M221.67 350.766L313.056 394.2V242.622L221.67 225.918V350.766ZM260.37 241.758C275.436 241.182 288.432 261.378 289.404 286.866C290.376 312.354 279 333.468 263.88 334.044C248.76 334.62 235.818 314.424 234.846 288.936C233.874 263.448 245.304 242.334 260.37 241.758Z" fill="#263238"/>
<path d="M413.784 365.4C412.934 364.448 411.868 363.713 410.676 363.258C409.483 362.803 408.199 362.642 406.931 362.786C405.663 362.931 404.448 363.378 403.388 364.089C402.329 364.801 401.455 365.757 400.842 366.876L342.954 472.572L453.33 584.172V413.856L450 406.134L413.784 365.4Z" fill="#263238"/>
<path d="M455.292 601.578V666.486L489.042 672.3L455.292 601.578Z" fill="#263238"/>
<path d="M519.264 344.61C513.922 344.61 508.799 346.732 505.021 350.509C501.244 354.287 499.122 359.41 499.122 364.752C499.122 375.876 519.264 396.9 519.264 396.9C519.264 396.9 539.406 375.876 539.406 364.752C539.406 359.41 537.284 354.287 533.506 350.509C529.729 346.732 524.606 344.61 519.264 344.61ZM519.264 371.952C517.583 371.952 515.941 371.454 514.544 370.52C513.147 369.586 512.058 368.26 511.415 366.707C510.771 365.155 510.603 363.446 510.931 361.798C511.259 360.15 512.068 358.636 513.256 357.448C514.444 356.26 515.958 355.451 517.606 355.123C519.254 354.795 520.963 354.964 522.515 355.607C524.068 356.25 525.394 357.339 526.328 358.736C527.262 360.133 527.76 361.776 527.76 363.456C527.76 364.572 527.54 365.676 527.113 366.707C526.686 367.738 526.06 368.675 525.271 369.463C524.482 370.252 523.546 370.878 522.515 371.305C521.484 371.732 520.38 371.952 519.264 371.952Z" fill="white"/>
<path d="M277.056 433.386C277.056 433.386 280.44 441.504 283.374 443.088C286.308 444.672 288.774 446.004 291.942 441.288C295.11 436.572 289.008 428.886 284.49 427.536C279.972 426.186 275.4 426.852 277.056 433.386Z" fill="white" stroke="#263238" stroke-width="0.75" stroke-linecap="round" stroke-linejoin="round"/>
<path d="M272.034 423.558C272.034 423.558 269.73 425.88 271.71 431.496C273.69 437.112 279.306 437.454 280.314 435.798C281.322 434.142 286.254 438.12 286.254 438.12L288.9 453.33L303.786 451.998L304.2 437.4L272.034 423.558Z" fill="white" stroke="#263238" stroke-width="0.75" stroke-linecap="round" stroke-linejoin="round"/>
<path d="M248.22 528.066C248.22 528.066 247.896 545.598 247.896 559.818C247.896 574.038 255.492 592.56 255.492 592.56C255.492 592.56 255.168 599.508 257.148 603.81C259.128 608.112 266.418 616.41 268.398 616.05C270.378 615.69 271.044 610.092 271.368 603.144C271.692 596.196 262.782 590.544 262.782 583.632C262.782 576.72 265.752 561.15 267.408 552.222C269.064 543.294 268.722 527.742 268.722 527.742L248.562 526.752L248.22 528.066Z" fill="white"/>
<g style="mix-blend-mode:multiply" opacity="0.5">
<path d="M268.722 527.742L248.562 526.752L248.22 528.066C248.22 528.066 248.22 531.306 248.094 536.112C250.509 537.975 253.25 539.373 256.176 540.234C255.615 551.193 256.218 562.18 257.976 573.012C260.892 590.13 263.07 592.308 261.252 596.682C259.434 601.056 262.8 608.4 266.004 610.2C268.074 611.352 270 606.24 271.404 601.866C270.666 595.512 262.854 590.166 262.854 583.668C262.854 576.72 265.824 561.186 267.48 552.258C269.136 543.33 268.722 527.742 268.722 527.742Z" fill="#407BFF"/>
</g>
<path d="M248.22 528.066C248.22 528.066 247.896 545.598 247.896 559.818C247.896 574.038 255.492 592.56 255.492 592.56C255.492 592.56 255.168 599.508 257.148 603.81C259.128 608.112 266.418 616.41 268.398 616.05C270.378 615.69 271.044 610.092 271.368 603.144C271.692 596.196 262.782 590.544 262.782 583.632C262.782 576.72 265.752 561.15 267.408 552.222C269.064 543.294 268.722 527.742 268.722 527.742L248.562 526.752L248.22 528.066Z" stroke="#263238" stroke-width="0.75" stroke-linecap="round" stroke-linejoin="round"/>
<path d="M345.402 447.21L363.816 435.96L392.13 403.56C393.87 399.69 396.044 396.031 398.61 392.652C401.688 389.232 410.886 381.042 411.912 382.752C412.938 384.462 413.622 384.804 411.912 386.514L406.116 392.31C406.116 392.31 412.596 397.71 412.938 399.51C413.259 400.718 413.334 401.977 413.158 403.214C412.981 404.451 412.558 405.64 411.912 406.71C410.22 409.086 409.194 406.026 409.194 406.026C407.953 408.529 406.338 410.83 404.406 412.848C403.09 414.045 401.411 414.767 399.636 414.9L396.558 415.566C396.558 415.566 387.018 435.024 382.572 440.766C378.126 446.508 375.372 449.64 371.664 451.674C367.956 453.708 345.402 466.344 345.402 466.344V447.21Z" fill="white"/>
<g style="mix-blend-mode:multiply" opacity="0.5">
<path d="M410.166 401.634C406.044 401.634 407.916 405.378 403.434 408.366C400.441 410.274 397.15 411.668 393.696 412.488C393.696 412.488 385.47 430.488 372.744 438.678C360.018 446.868 360.036 445.41 360.036 445.41L355.752 460.512L371.664 451.638C375.408 449.604 378.144 446.526 382.572 440.73C387 434.934 396.558 415.53 396.558 415.53L399.636 414.864C401.411 414.732 403.09 414.009 404.406 412.812C406.338 410.794 407.953 408.494 409.194 405.99C409.194 405.99 410.22 409.05 411.912 406.674C412.424 405.943 412.785 405.117 412.974 404.244C412.488 402.732 411.642 401.634 410.166 401.634Z" fill="#407BFF"/>
</g>
<path d="M345.402 447.21L363.816 435.96L392.13 403.56C393.87 399.69 396.044 396.031 398.61 392.652C401.688 389.232 410.886 381.042 411.912 382.752C412.938 384.462 413.622 384.804 411.912 386.514L406.116 392.31C406.116 392.31 412.596 397.71 412.938 399.51C413.259 400.718 413.334 401.977 413.158 403.214C412.981 404.451 412.558 405.64 411.912 406.71C410.22 409.086 409.194 406.026 409.194 406.026C407.953 408.529 406.338 410.83 404.406 412.848C403.09 414.045 401.411 414.767 399.636 414.9L396.558 415.566C396.558 415.566 387.018 435.024 382.572 440.766C378.126 446.508 375.372 449.64 371.664 451.674C367.956 453.708 345.402 466.344 345.402 466.344V447.21Z" stroke="#263238" stroke-width="0.75" stroke-linecap="round" stroke-linejoin="round"/>
<path d="M287.352 741.006C287.352 741.006 291.798 742.122 290.682 745.434C289.566 748.746 286.02 754.956 283.14 754.74C280.26 754.524 287.352 741.006 287.352 741.006Z" fill="#407BFF" stroke="#263238" stroke-width="0.75" stroke-linecap="round" stroke-linejoin="round"/>
<path d="M271.044 605.466C271.044 605.466 272.034 632.592 272.034 636.552C272.034 640.512 266.076 656.064 266.076 664.002C266.076 671.94 272.034 730.764 272.034 740.682C272.034 750.6 271.044 753.912 276.336 754.92C281.628 755.928 284.94 756.234 286.92 749.286C288.9 742.338 286.92 698.076 288.9 679.554C290.88 661.032 294.534 641.178 294.858 629.946C295.153 622.59 296.148 615.279 297.828 608.112C293.588 608.225 289.351 607.777 285.228 606.78C280.57 605.774 275.808 605.333 271.044 605.466Z" fill="white"/>
<g style="mix-blend-mode:multiply" opacity="0.5">
<path d="M294.966 627.57C292.892 626.905 290.758 626.447 288.594 626.202C286.416 626.202 279.486 626.562 276.93 626.922L271.818 627.732C271.944 631.89 272.034 635.328 272.034 636.552C271.977 637.518 271.826 638.477 271.584 639.414C273.989 640.62 276.518 641.561 279.126 642.222C286.776 644.4 287.856 644.022 287.856 644.022C287.856 644.022 276.93 670.608 277.668 681.174C278.226 689.328 279.648 734.976 280.278 755.424C283.356 755.514 285.48 754.29 286.92 749.268C288.9 742.32 286.92 698.058 288.9 679.536C290.88 661.014 294.534 641.16 294.858 629.928C294.87 629.124 294.906 628.338 294.966 627.57Z" fill="#407BFF"/>
</g>
<path d="M271.044 605.466C271.044 605.466 272.034 632.592 272.034 636.552C272.034 640.512 266.076 656.064 266.076 664.002C266.076 671.94 272.034 730.764 272.034 740.682C272.034 750.6 271.044 753.912 276.336 754.92C281.628 755.928 284.94 756.234 286.92 749.286C288.9 742.338 286.92 698.076 288.9 679.554C290.88 661.032 294.534 641.178 294.858 629.946C295.153 622.59 296.148 615.279 297.828 608.112C293.588 608.225 289.351 607.777 285.228 606.78C280.57 605.774 275.808 605.333 271.044 605.466Z" stroke="#263238" stroke-width="0.75" stroke-linecap="round" stroke-linejoin="round"/>
<path d="M301.806 611.748C301.806 611.748 303.12 634.248 301.806 641.52C300.492 648.792 297.18 653.418 296.838 661.698C296.496 669.978 302.13 736.056 302.13 744.336C302.13 752.616 298.17 754.254 305.73 756.936C313.29 759.618 340.794 750.312 340.794 746.676C340.794 743.04 322.938 742.716 320.994 738.072C319.05 733.428 318.942 675.27 322.236 658.08C325.53 640.89 329.616 608.328 329.616 608.328L301.806 611.748Z" fill="white"/>
<g style="mix-blend-mode:multiply" opacity="0.5">
<path d="M309.6 757.35C320.022 757.206 340.758 749.808 340.758 746.64C340.758 743.04 322.902 742.68 320.958 738.036C319.014 733.392 318.906 675.234 322.2 658.044C323.892 649.278 325.8 636.552 327.204 626.166C318.762 626.166 308.376 626.544 302.328 626.742C302.522 631.675 302.335 636.616 301.77 641.52C301.478 643.066 301.093 644.592 300.618 646.092C303.386 647.697 306.445 648.737 309.618 649.152C309.618 649.152 308.16 663.354 307.062 684.846C306.18 704.322 307.278 746.874 309.6 757.35Z" fill="#407BFF"/>
</g>
<path d="M301.806 611.748C301.806 611.748 303.12 634.248 301.806 641.52C300.492 648.792 297.18 653.418 296.838 661.698C296.496 669.978 302.13 736.056 302.13 744.336C302.13 752.616 298.17 754.254 305.73 756.936C313.29 759.618 340.794 750.312 340.794 746.676C340.794 743.04 322.938 742.716 320.994 738.072C319.05 733.428 318.942 675.27 322.236 658.08C325.53 640.89 329.616 608.328 329.616 608.328L301.806 611.748Z" stroke="#263238" stroke-width="0.75" stroke-linecap="round" stroke-linejoin="round"/>
<path d="M340.83 746.64C340.83 743.04 322.974 742.68 321.03 738.036L322.02 745.65C322.02 745.65 319.698 747.972 312.084 748.62C308.676 748.945 305.238 748.733 301.896 747.99C301.158 753.174 299.484 754.704 305.802 756.9C313.38 759.6 340.83 750.276 340.83 746.64Z" fill="#407BFF" stroke="#263238" stroke-width="0.75" stroke-linecap="round" stroke-linejoin="round"/>
<path d="M286.92 749.286C287.336 747.574 287.583 745.826 287.658 744.066C281.772 746.892 275.562 745.254 272.016 743.796C271.89 751.32 271.638 754.038 276.336 754.92C281.628 756 284.94 756.234 286.92 749.286Z" fill="#407BFF" stroke="#263238" stroke-width="0.75" stroke-linecap="round" stroke-linejoin="round"/>
<path d="M264.096 555.516L264.726 628.92C264.726 628.92 268.038 631.89 276.642 633.222C282.385 633.938 288.21 633.603 293.832 632.232L293.508 636.858C293.508 636.858 298.8 640.17 311.022 640.458C323.244 640.746 333.846 633.258 333.846 633.258L328.266 555.228C328.266 555.228 301.482 561.852 283.608 557.55C265.734 553.248 266.742 549.234 264.096 555.516Z" fill="white"/>
<g style="mix-blend-mode:multiply">
<path d="M315.09 633.168L314.802 640.368C321.619 639.522 328.143 637.087 333.846 633.258L328.266 555.228C328.266 555.228 301.482 561.852 283.608 557.55C265.734 553.248 266.742 549.27 264.096 555.552L264.204 566.784C269.436 569.834 275.098 572.079 280.998 573.444C294.462 576.81 310.896 574.704 310.896 574.704L315.09 597.438C315.85 599.48 316.416 601.59 316.782 603.738C316.951 605.88 316.663 608.034 315.936 610.056C315.936 610.056 319.302 620.586 319.302 625.626C319.262 627.13 318.858 628.602 318.124 629.915C317.391 631.229 316.35 632.345 315.09 633.168Z" fill="#407BFF"/>
</g>
<g style="mix-blend-mode:multiply" opacity="0.1">
<path d="M315.09 633.168L314.802 640.368C321.619 639.522 328.143 637.087 333.846 633.258L328.266 555.228C328.266 555.228 301.482 561.852 283.608 557.55C265.734 553.248 266.742 549.27 264.096 555.552L264.204 566.784C269.436 569.834 275.098 572.079 280.998 573.444C294.462 576.81 310.896 574.704 310.896 574.704L315.09 597.438C315.85 599.48 316.416 601.59 316.782 603.738C316.951 605.88 316.663 608.034 315.936 610.056C315.936 610.056 319.302 620.586 319.302 625.626C319.262 627.13 318.858 628.602 318.124 629.915C317.391 631.229 316.35 632.345 315.09 633.168Z" fill="black"/>
</g>
<path d="M264.096 555.516L264.726 628.92C264.726 628.92 268.038 631.89 276.642 633.222C282.385 633.938 288.21 633.603 293.832 632.232L293.508 636.858C293.508 636.858 298.8 640.17 311.022 640.458C323.244 640.746 333.846 633.258 333.846 633.258L328.266 555.228C328.266 555.228 301.482 561.852 283.608 557.55C265.734 553.248 266.742 549.234 264.096 555.516Z" stroke="#263238" stroke-width="0.75" stroke-linecap="round" stroke-linejoin="round"/>
<path d="M279.306 575.694L292.212 578.016L292.878 610.434" stroke="#263238" stroke-width="0.75" stroke-linecap="round" stroke-linejoin="round"/>
<path d="M328.734 595.242C328.734 595.242 327.528 597.258 320.238 598.068C312.948 598.878 308.916 597.672 308.52 599.292C308.124 600.912 309.312 608.994 309.312 608.994C312.597 610.007 316.06 610.315 319.472 609.896C322.884 609.477 326.169 608.342 329.112 606.564" stroke="#263238" stroke-width="0.75" stroke-linecap="round" stroke-linejoin="round"/>
<path d="M310.122 613.8C310.122 613.8 308.916 631.188 310.932 631.998" stroke="#263238" stroke-width="0.75" stroke-linecap="round" stroke-linejoin="round"/>
<path d="M266.4 621.936C266.4 621.936 274.5 630.432 293.508 626.4C293.508 626.4 312.516 640.152 330.318 625.176" stroke="#263238" stroke-width="0.75" stroke-linecap="round" stroke-linejoin="round"/>
<path d="M292.734 615.06V624.366" stroke="#263238" stroke-width="0.75" stroke-linecap="round" stroke-linejoin="round"/>
<path d="M250.2 512.856C249.365 513.048 248.579 513.413 247.894 513.927C247.209 514.442 246.639 515.095 246.222 515.844C245.232 518.148 243.252 525.096 244.566 527.076C247.339 530.118 251.078 532.108 255.15 532.71C258.383 533.017 261.645 532.674 264.744 531.702L266.4 517.824C266.4 517.824 253.188 518.814 250.2 512.856Z" fill="white" stroke="#263238" stroke-width="0.75" stroke-linecap="round" stroke-linejoin="round"/>
<path d="M344.304 445.068C344.304 445.068 342.072 442.098 344.304 440.604C346.536 439.11 354.384 434.646 356.616 435.384C358.848 436.122 364.068 441.72 364.824 447.318C365.58 452.916 367.056 457.38 365.184 458.874C363.312 460.368 356.616 467.442 354.384 467.874C352.152 468.306 351.396 465.264 351.396 465.264L344.304 445.068Z" fill="white" stroke="#263238" stroke-width="0.75" stroke-linecap="round" stroke-linejoin="round"/>
<path d="M283.284 453.6C283.284 453.6 264.096 463.194 262.44 467.172C260.784 471.15 247.572 514.458 248.886 516.438C249.716 517.869 250.863 519.09 252.239 520.008C253.615 520.925 255.184 521.515 256.824 521.73C259.191 522.265 261.6 522.596 264.024 522.72L261.72 554.814C261.72 554.814 269.982 571.68 297.72 568.044C325.458 564.408 335.754 552.816 335.754 552.816L326.502 482.706C326.502 482.706 356.598 464.526 356.922 460.548C357.246 456.57 355.932 446.994 353.322 444.348C352.445 443.351 351.258 442.677 349.953 442.436C348.647 442.194 347.298 442.398 346.122 443.016C339.232 445.993 332.162 448.536 324.954 450.63C323.64 450.63 316.692 449.298 315.036 449.298C313.38 449.298 299.826 451.296 297.828 451.296C295.83 451.296 283.284 453.6 283.284 453.6Z" fill="#407BFF" stroke="#263238" stroke-width="0.75" stroke-linecap="round" stroke-linejoin="round"/>
<path opacity="0.3" d="M283.284 453.6C283.284 453.6 264.096 463.194 262.44 467.172C260.784 471.15 247.572 514.458 248.886 516.438C249.716 517.869 250.863 519.09 252.239 520.008C253.615 520.925 255.184 521.515 256.824 521.73C259.191 522.265 261.6 522.596 264.024 522.72L261.72 554.814C261.72 554.814 269.982 571.68 297.72 568.044C325.458 564.408 335.754 552.816 335.754 552.816L326.502 482.706C326.502 482.706 356.598 464.526 356.922 460.548C357.246 456.57 355.932 446.994 353.322 444.348C352.445 443.351 351.258 442.677 349.953 442.436C348.647 442.194 347.298 442.398 346.122 443.016C339.232 445.993 332.162 448.536 324.954 450.63C323.64 450.63 316.692 449.298 315.036 449.298C313.38 449.298 299.826 451.296 297.828 451.296C295.83 451.296 283.284 453.6 283.284 453.6Z" fill="white" stroke="#263238" stroke-width="0.75" stroke-linecap="round" stroke-linejoin="round"/>
<path d="M281.628 455.976L284.598 450.684C284.598 450.684 293.202 447.696 299.484 446.058C305.766 444.42 309.42 443.736 309.42 443.736L312.66 450.378L281.628 455.976Z" fill="white" stroke="#263238" stroke-width="0.75" stroke-linecap="round" stroke-linejoin="round"/>
<path d="M329.58 504.594L321.642 552.222C321.642 552.222 331.236 551.232 335.862 552.87L329.58 504.594Z" fill="white" stroke="#263238" stroke-width="0.75" stroke-linecap="round" stroke-linejoin="round"/>
<path d="M326.61 482.76C326.61 482.76 315.81 504.612 310.536 510.678" stroke="#263238" stroke-width="0.75" stroke-linecap="round" stroke-linejoin="round"/>
<path d="M320.238 495.306C320.238 495.306 316.206 517.554 312.156 526.464" stroke="#263238" stroke-width="0.75" stroke-linecap="round" stroke-linejoin="round"/>
<path d="M264.006 520.398L264.42 483.174" stroke="#263238" stroke-width="0.75" stroke-linecap="round" stroke-linejoin="round"/>
<path d="M283.284 393.786C281.856 392.911 280.238 392.395 278.567 392.282C276.896 392.17 275.223 392.463 273.69 393.138C268.398 395.442 267.408 409.662 268.722 418.932C270.036 428.202 283.284 436.464 287.586 440.1C291.888 443.736 298.17 443.07 303.786 440.1C309.402 437.13 317.682 422.244 315.036 408.672C312.39 395.1 309.744 387.504 299.16 387.18C288.576 386.856 283.95 389.16 283.284 393.786Z" fill="white" stroke="#263238" stroke-width="0.75" stroke-linecap="round" stroke-linejoin="round"/>
<g style="mix-blend-mode:multiply">
<path d="M278.1 431.784C276.559 430.271 275.144 428.633 273.87 426.888C272.754 425.088 274.536 425.772 277.65 427.104C280.764 428.436 273.42 421.542 272.754 415.296C272.088 409.05 283.212 407.718 288.126 410.832C291.107 412.749 293.803 415.076 296.136 417.744C296.136 417.744 295.92 406.602 300.366 407.268C304.812 407.934 305.496 416.628 305.496 416.628C305.496 416.628 311.058 405.486 311.724 409.05C312.39 412.614 308.844 425.988 308.844 425.988C308.844 425.988 312.84 415.08 313.74 419.526C314.64 423.972 307.872 437.274 303.786 440.1C299.7 442.926 291.69 443.808 288.342 441.36C284.752 438.362 281.333 435.165 278.1 431.784Z" fill="#407BFF"/>
</g>
<path d="M311.544 401.148C312.454 407.687 311.434 414.35 308.61 420.318C303.876 430.686 301.86 431.118 301.86 431.118" stroke="#263238" stroke-width="0.5" stroke-miterlimit="10" stroke-linecap="round"/>
<path d="M312.228 423.684C312.228 423.684 307.71 433.152 301.86 436.284" stroke="#263238" stroke-width="0.5" stroke-miterlimit="10" stroke-linecap="round"/>
<path d="M284.94 396.414C284.94 396.414 291.708 401.364 292.392 407.466" stroke="#263238" stroke-width="0.5" stroke-miterlimit="10" stroke-linecap="round"/>
<path d="M270.738 418.734C273.097 424.038 277.245 428.344 282.456 430.902C291.024 434.97 294.408 430.236 294.408 430.236" stroke="#263238" stroke-width="0.5" stroke-miterlimit="10" stroke-linecap="round"/>
<path d="M285.624 436.536C290.007 438.382 294.933 438.466 299.376 436.77" stroke="#263238" stroke-width="0.5" stroke-miterlimit="10" stroke-linecap="round"/>
<path d="M178.434 723.726C178.434 723.726 185.4 725.238 183.96 727.776C182.52 730.314 180.954 729.9 180.954 729.9C180.437 727.725 179.587 725.642 178.434 723.726Z" fill="white" stroke="#263238" stroke-width="0.75" stroke-linecap="round" stroke-linejoin="round"/>
<path d="M157.59 734.508C157.59 734.508 153.612 737.388 156.51 740.646C159.408 743.904 165.51 744.246 169.866 741.366C174.222 738.486 181.782 733.788 184.266 730.89C186.75 727.992 183.186 724.032 178.488 723.312C173.79 722.592 157.59 734.508 157.59 734.508Z" fill="white" stroke="#263238" stroke-width="0.75" stroke-linecap="round" stroke-linejoin="round"/>
<path d="M150.948 616.086C152.243 622.315 151.996 628.766 150.228 634.878C147.33 646.074 146.97 651.078 148.05 661.608C149.13 672.138 159.246 719.388 158.166 725.886C157.086 732.384 156.366 734.202 157.806 737.802C159.246 741.402 164.304 741.78 167.922 738.522C171.54 735.264 174.78 734.202 175.86 730.224C176.94 726.246 172.62 723.024 171.54 719.424C170.46 715.824 168.282 664.884 168.282 650.808C168.577 639.565 169.538 628.349 171.162 617.22L150.948 616.086Z" fill="white"/>
<g style="mix-blend-mode:multiply" opacity="0.5">
<path d="M168.282 650.772C168.576 639.529 169.538 628.313 171.162 617.184L150.948 616.086C151.586 618.852 151.84 621.693 151.704 624.528C153.018 624.906 154.458 625.302 155.844 625.608C157.947 626.151 160.1 626.476 162.27 626.58C162.27 626.58 159.696 638.478 158.094 648.45C156.492 658.422 157.446 685.116 161.694 700.542C165.942 715.968 164.592 724.986 165.564 728.838C166.536 732.69 166.77 737.334 164.034 740.574C165.508 740.24 166.871 739.533 167.994 738.522C171.594 735.282 174.852 734.202 175.932 730.224C177.012 726.246 172.692 723.024 171.612 719.424C170.532 715.824 168.282 664.848 168.282 650.772Z" fill="#407BFF"/>
</g>
<path d="M150.948 616.086C152.243 622.315 151.996 628.766 150.228 634.878C147.33 646.074 146.97 651.078 148.05 661.608C149.13 672.138 159.246 719.388 158.166 725.886C157.086 732.384 156.366 734.202 157.806 737.802C159.246 741.402 164.304 741.78 167.922 738.522C171.54 735.264 174.78 734.202 175.86 730.224C176.94 726.246 172.62 723.024 171.54 719.424C170.46 715.824 168.282 664.884 168.282 650.808C168.577 639.565 169.538 628.349 171.162 617.22L150.948 616.086Z" stroke="#263238" stroke-width="0.75" stroke-linecap="round" stroke-linejoin="round"/>
<path d="M172.26 721.008C173.742 721.172 175.172 721.648 176.457 722.405C177.741 723.162 178.851 724.183 179.712 725.4C182.232 729.378 181.638 729.918 181.638 729.918L174.438 734.256C174.438 734.256 173.34 731.484 172.26 721.008Z" fill="#407BFF" stroke="#263238" stroke-width="0.75" stroke-linecap="round" stroke-linejoin="round"/>
<path d="M202.194 745.434C202.194 745.434 199.674 746.532 202.554 749.034C205.434 751.536 213.03 749.754 222.354 747.954C231.678 746.154 239.328 742.176 239.688 739.638C240.048 737.1 231.75 737.118 231.75 737.118L202.194 745.434Z" fill="white" stroke="#263238" stroke-width="0.75" stroke-linecap="round" stroke-linejoin="round"/>
<path d="M186.696 621.144C186.696 621.144 188.136 626.922 185.616 638.118C183.096 649.314 182.016 651.132 183.816 663.768C185.616 676.404 201.114 732.078 201.816 735.336C202.518 738.594 201.816 742.914 202.176 745.434C202.536 747.954 209.034 747.234 212.652 746.532C216.27 745.83 229.626 743.274 232.164 741.834C234.702 740.394 238.302 739.296 234.324 737.496C230.346 735.696 218.124 735.696 215.91 732.798C213.696 729.9 209.772 721.242 209.772 716.598C209.772 711.954 202.572 659.484 203.652 649.008C204.732 638.532 206.55 616.878 206.55 616.878L186.696 621.144Z" fill="white"/>
<g style="mix-blend-mode:multiply" opacity="0.5">
<path d="M234.342 737.496C230.364 735.696 218.142 735.696 215.928 732.798C213.714 729.9 209.79 721.242 209.79 716.598C209.79 711.954 202.59 659.484 203.67 649.008C204.75 638.532 206.568 616.878 206.568 616.878L186.768 621.198C187.339 624.495 187.375 627.862 186.876 631.17C187.693 631.347 188.525 631.444 189.36 631.458C193.212 631.458 200.286 631.134 200.286 631.134C200.286 631.134 193.86 650.106 194.184 663.3C194.508 676.494 207.054 729.9 208.332 734.364C209.452 737.791 209.993 741.38 209.934 744.984C209.927 745.676 209.879 746.367 209.79 747.054C210.87 746.928 211.878 746.748 212.742 746.586C216.342 745.848 229.716 743.328 232.254 741.888C234.792 740.448 238.32 739.296 234.342 737.496Z" fill="#407BFF"/>
</g>
<path d="M186.696 621.144C186.696 621.144 188.136 626.922 185.616 638.118C183.096 649.314 182.016 651.132 183.816 663.768C185.616 676.404 201.114 732.078 201.816 735.336C202.518 738.594 201.816 742.914 202.176 745.434C202.536 747.954 209.034 747.234 212.652 746.532C216.27 745.83 229.626 743.274 232.164 741.834C234.702 740.394 238.302 739.296 234.324 737.496C230.346 735.696 218.124 735.696 215.91 732.798C213.696 729.9 209.772 721.242 209.772 716.598C209.772 711.954 202.572 659.484 203.652 649.008C204.732 638.532 206.55 616.878 206.55 616.878L186.696 621.144Z" stroke="#263238" stroke-width="0.75" stroke-linecap="round" stroke-linejoin="round"/>
<path d="M230.4 736.056C230.4 736.056 226.206 731.736 218.196 734.148C218.196 734.148 220.662 734.598 220.662 738.576C220.662 742.554 220.662 746.604 220.662 746.604L229.284 744.354C230.252 743.227 230.873 741.843 231.071 740.37C231.269 738.898 231.036 737.399 230.4 736.056Z" fill="#407BFF" stroke="#263238" stroke-width="0.75" stroke-linecap="round" stroke-linejoin="round"/>
<path d="M139.68 488.286C139.68 488.286 134.586 505.26 135.432 512.064C136.278 518.868 136.8 527.4 140.526 527.4C144.252 527.4 151.992 492.588 152.424 490.032C152.856 487.476 139.68 488.286 139.68 488.286Z" fill="white" stroke="#263238" stroke-width="0.75" stroke-linecap="round" stroke-linejoin="round"/>
<path d="M147.69 468.018L138.186 490.824L158.202 498.402L157.158 475.632L147.69 468.018Z" fill="white" stroke="#263238" stroke-width="0.75" stroke-linecap="round" stroke-linejoin="round"/>
<path d="M172.26 438.408C172.656 441.915 172.412 445.464 171.54 448.884C170.082 452.844 147.69 463.68 147.69 468.018C147.69 472.356 155.646 526.158 155.646 526.158C155.646 526.158 161.046 531.216 174.42 530.856C187.794 530.496 191.034 523.278 191.034 523.278C191.034 523.278 198.234 470.538 194.292 465.498C190.35 460.458 181.692 452.898 180.558 451.098C179.424 449.298 182.358 437.004 182.358 437.004C182.358 437.004 180.918 433.404 174.06 433.044C167.202 432.684 172.26 438.408 172.26 438.408Z" fill="white" stroke="#263238" stroke-width="0.75" stroke-linecap="round" stroke-linejoin="round"/>
<path d="M183.6 454.356C182.498 453.336 181.481 452.228 180.558 451.044C179.478 449.244 182.358 436.95 182.358 436.95C182.358 436.95 180.918 433.35 174.06 432.99C167.202 432.63 172.26 438.39 172.26 438.39C172.656 441.897 172.412 445.446 171.54 448.866C171.108 450.018 168.894 451.764 165.996 453.744C168.69 455.924 172.035 457.14 175.5 457.2C178.386 456.903 181.162 455.929 183.6 454.356Z" fill="white" stroke="#263238" stroke-width="0.75" stroke-linecap="round" stroke-linejoin="round"/>
<path d="M188.514 500.166C189.477 505.855 191.046 511.425 193.194 516.78C196.794 525.78 205.794 540.612 208.728 535.194C211.662 529.776 211.626 517.194 210.168 509.184C208.71 501.174 205.848 492.57 205.848 488.61C205.848 484.65 206.928 480.654 205.848 477.414C204.768 474.174 196.848 470.538 196.848 470.538L188.514 500.166Z" fill="white"/>
<g style="mix-blend-mode:multiply" opacity="0.5">
<path d="M208.8 535.194C211.698 529.794 211.698 517.194 210.24 509.184C208.782 501.174 205.92 492.57 205.92 488.61C205.92 484.65 207 480.654 205.92 477.414C204.84 474.174 196.92 470.538 196.92 470.538L188.622 500.166C189.06 502.858 189.661 505.521 190.422 508.14L200.772 503.154C200.772 503.154 207.468 518.724 208.17 526.968C208.401 530.121 208.103 533.291 207.288 536.346C207.622 536.314 207.941 536.19 208.209 535.986C208.476 535.782 208.681 535.508 208.8 535.194Z" fill="#407BFF"/>
</g>
<path d="M188.514 500.166C189.477 505.855 191.046 511.425 193.194 516.78C196.794 525.78 205.794 540.612 208.728 535.194C211.662 529.776 211.626 517.194 210.168 509.184C208.71 501.174 205.848 492.57 205.848 488.61C205.848 484.65 206.928 480.654 205.848 477.414C204.768 474.174 196.848 470.538 196.848 470.538L188.514 500.166Z" stroke="#263238" stroke-width="0.75" stroke-linecap="round" stroke-linejoin="round"/>
<path d="M201.87 491.49C201.87 491.49 206.928 507.024 208.728 512.442L201.87 491.49Z" fill="white"/>
<path d="M201.87 491.49C201.87 491.49 206.928 507.024 208.728 512.442" stroke="#263238" stroke-width="0.75" stroke-linecap="round" stroke-linejoin="round"/>
<path d="M194.292 465.498C194.292 465.498 195.372 465.858 196.812 470.538C198.252 475.218 203.742 491.796 203.742 491.796L199.476 496.098C196.852 498.761 193.812 500.98 190.476 502.668L188.226 503.766L183.906 490.41" fill="white"/>
<path d="M194.292 465.498C194.292 465.498 195.372 465.858 196.812 470.538C198.252 475.218 203.742 491.796 203.742 491.796L199.476 496.098C196.852 498.761 193.812 500.98 190.476 502.668L188.226 503.766L183.906 490.41" stroke="#263238" stroke-width="0.75" stroke-linecap="round" stroke-linejoin="round"/>
<path d="M198.252 411.498C198.252 411.498 201.492 426.708 201.492 432.864C201.492 439.02 191.142 449.694 187.902 449.37C184.662 449.046 177.21 440.37 174.618 433.512C172.026 426.654 181.422 415.386 184.338 413.442C187.254 411.498 196.632 409.878 198.252 411.498Z" fill="white"/>
<g style="mix-blend-mode:multiply" opacity="0.5">
<path d="M200.52 423.774C199.566 417.69 198.252 411.498 198.252 411.498C196.632 409.878 187.254 411.498 184.338 413.442C181.854 415.098 174.654 423.612 174.222 430.308C180.144 430.2 188.856 428.742 200.52 423.774Z" fill="#407BFF"/>
</g>
<path d="M198.252 411.498C198.252 411.498 201.492 426.708 201.492 432.864C201.492 439.02 191.142 449.694 187.902 449.37C184.662 449.046 177.21 440.37 174.618 433.512C172.026 426.654 181.422 415.386 184.338 413.442C187.254 411.498 196.632 409.878 198.252 411.498Z" stroke="#263238" stroke-width="0.75" stroke-linecap="round" stroke-linejoin="round"/>
<path d="M193.176 423.918C193.176 425.196 192.618 426.24 191.934 426.24C191.25 426.24 190.692 425.196 190.692 423.918C190.692 422.64 191.25 421.614 191.934 421.614C192.618 421.614 193.176 422.64 193.176 423.918Z" fill="#263238"/>
<path d="M199.422 421.956C199.422 423.234 198.864 424.278 198.162 424.278C197.46 424.278 196.92 423.234 196.92 421.956C196.92 420.678 197.478 419.652 198.162 419.652C198.846 419.652 199.422 420.678 199.422 421.956Z" fill="#263238"/>
<path d="M196.542 420.732C196.368 423.172 196.692 425.622 197.496 427.932C198.846 431.388 199.8 432.36 198.846 433.332C197.892 434.304 195.966 433.71 195.966 433.71" stroke="#263238" stroke-width="0.75" stroke-linecap="round" stroke-linejoin="round"/>
<path d="M195.192 438.966C195.192 438.966 191.016 439.614 190.152 435.924" stroke="#263238" stroke-width="0.75" stroke-linecap="round" stroke-linejoin="round"/>
<path d="M189.252 420.354C189.307 419.902 189.463 419.468 189.708 419.084C189.953 418.7 190.281 418.376 190.668 418.136C191.055 417.896 191.491 417.746 191.944 417.696C192.397 417.647 192.855 417.7 193.284 417.852" stroke="#263238" stroke-width="0.75" stroke-linecap="round" stroke-linejoin="round"/>
<path d="M196.74 417.6C196.74 417.6 197.892 415.296 199.044 416.646" stroke="#263238" stroke-width="0.75" stroke-linecap="round" stroke-linejoin="round"/>
<path d="M188.55 413.442C181.098 399.852 163.35 407.61 154.224 417.654C145.098 427.698 143.28 438.858 148.14 445.338C153 451.818 162.864 457.002 174.6 448.2C181.656 442.908 185.4 431.262 187.092 422.892C187.254 427.464 186.966 434.358 184.356 438.48C184.323 438.532 184.3 438.59 184.289 438.651C184.279 438.712 184.28 438.774 184.293 438.834C184.307 438.894 184.332 438.951 184.367 439.002C184.403 439.052 184.448 439.095 184.5 439.128C184.583 439.146 184.669 439.146 184.752 439.128C184.83 439.124 184.906 439.103 184.975 439.065C185.043 439.028 185.103 438.976 185.148 438.912C188.748 433.08 188.136 422.496 187.812 419.112C188.334 415.8 188.55 413.442 188.55 413.442Z" fill="#263238"/>
<path d="M155.646 526.158C155.646 526.158 141.552 551.088 139.752 562.644C137.952 574.2 139.032 614.646 139.032 614.646C139.032 614.646 142.992 618.624 155.232 619.344C167.472 620.064 173.646 618.264 173.646 618.264L175.086 622.242C175.086 622.242 187.686 626.202 199.278 623.322C210.87 620.442 215.172 616.464 215.172 616.464C215.172 616.464 215.172 585.756 204.696 559.026C194.22 532.296 190.98 523.278 190.98 523.278C190.98 523.278 176.58 534.474 155.646 526.158Z" fill="#407BFF" stroke="#263238" stroke-width="0.75" stroke-linecap="round" stroke-linejoin="round"/>
<path opacity="0.2" d="M155.646 526.158C155.646 526.158 141.552 551.088 139.752 562.644C137.952 574.2 139.032 614.646 139.032 614.646C139.032 614.646 142.992 618.624 155.232 619.344C167.472 620.064 173.646 618.264 173.646 618.264L175.086 622.242C175.086 622.242 187.686 626.202 199.278 623.322C210.87 620.442 215.172 616.464 215.172 616.464C215.172 616.464 215.172 585.756 204.696 559.026C194.22 532.296 190.98 523.278 190.98 523.278C190.98 523.278 176.58 534.474 155.646 526.158Z" fill="black" stroke="#263238" stroke-width="0.75" stroke-linecap="round" stroke-linejoin="round"/>
<path d="M138.6 606.708C138.6 606.708 155.934 616.824 174.708 610.308" stroke="#263238" stroke-width="0.75" stroke-linecap="round" stroke-linejoin="round"/>
<path d="M161.424 571.302L171.162 576L175.14 614.286" stroke="#263238" stroke-width="0.75" stroke-linecap="round" stroke-linejoin="round"/>
<path d="M175.5 608.868C181.215 611.76 187.584 613.115 193.981 612.8C200.379 612.484 206.584 610.509 211.986 607.068" stroke="#263238" stroke-width="0.75" stroke-linecap="round" stroke-linejoin="round"/>
<path d="M192.078 542.34C200.549 560.714 205.25 580.6 205.902 600.822" stroke="#263238" stroke-width="0.5" stroke-miterlimit="10" stroke-linecap="round"/>
<path d="M159.246 458.622C159.246 458.622 150.948 477.774 148.446 485.352C145.944 492.93 145.566 494.352 145.566 494.352L152.064 493.632L166.032 453.726C166.032 453.726 162.504 456.102 159.246 458.622Z" fill="#407BFF" stroke="#263238" stroke-width="0.75" stroke-linecap="round" stroke-linejoin="round"/>
<path d="M184.896 456.102C184.896 456.102 176.22 469.8 174.06 475.2C171.9 480.6 169.362 488.214 169.362 488.214L177.678 487.854C177.678 487.854 181.638 471.24 189.594 460.044L184.896 456.102Z" fill="#407BFF" stroke="#263238" stroke-width="0.75" stroke-linecap="round" stroke-linejoin="round"/>
<path d="M172.98 483.552C172.98 483.552 155.286 483.912 150.228 486.792C145.17 489.672 142.632 495.108 141.552 503.766C140.472 512.424 137.214 529.776 137.214 538.812C137.214 547.848 149.814 554.328 159.606 555.012C169.398 555.696 181.998 553.212 186.606 547.056C191.214 540.9 190.944 534.78 189.504 528.282C188.064 521.784 181.548 489.996 179.388 485.658C179.109 485.095 178.721 484.594 178.247 484.183C177.773 483.772 177.221 483.459 176.625 483.264C176.029 483.068 175.399 482.992 174.774 483.042C174.148 483.091 173.538 483.265 172.98 483.552Z" fill="#407BFF" stroke="#263238" stroke-width="0.75" stroke-linecap="round" stroke-linejoin="round"/>
<path d="M150.228 486.792C150.228 486.792 145.53 507.384 145.53 516.42C145.53 525.456 149.13 529.02 159.93 529.416C170.73 529.812 177.93 526.158 177.93 513.216C177.93 500.274 177.93 487.206 175.392 485.406C172.854 483.606 153.108 484.992 150.228 486.792Z" fill="#407BFF" stroke="#263238" stroke-width="0.75" stroke-linecap="round" stroke-linejoin="round"/>
<path d="M155.646 519.3C155.646 519.3 154.926 526.158 153.846 535.914C152.766 545.67 155.448 560.88 155.448 560.88L160.632 564.336L165.042 560.106C165.042 560.106 164.682 553.608 164.682 541.332C164.69 533.844 165.177 526.365 166.14 518.94L155.646 519.3Z" fill="#407BFF" stroke="#263238" stroke-width="0.75" stroke-linecap="round" stroke-linejoin="round"/>
<path opacity="0.1" d="M155.646 519.3C155.646 519.3 154.926 526.158 153.846 535.914C152.766 545.67 155.448 560.88 155.448 560.88L160.632 564.336L165.042 560.106C165.042 560.106 164.682 553.608 164.682 541.332C164.69 533.844 165.177 526.365 166.14 518.94L155.646 519.3Z" fill="black" stroke="#263238" stroke-width="0.75" stroke-linecap="round" stroke-linejoin="round"/>
<path d="M153.828 535.914C153.828 535.914 152.388 534.474 152.028 536.994C151.668 539.514 151.668 540.252 151.308 542.772C150.948 545.292 152.028 545.67 155.286 545.67C158.544 545.67 166.842 546.75 167.562 544.23C168.282 541.71 165.024 533.43 165.024 533.43L164.664 541.368L153.36 540.936L153.828 535.914Z" fill="white" stroke="#263238" stroke-width="0.75" stroke-linecap="round" stroke-linejoin="round"/>
<path d="M158.184 544.536C158.079 544.538 157.974 544.52 157.875 544.481C157.777 544.442 157.688 544.384 157.612 544.311C157.537 544.237 157.477 544.149 157.436 544.051C157.395 543.954 157.374 543.85 157.374 543.744C157.374 541.944 157.698 538.56 157.716 538.344C157.723 538.239 157.751 538.136 157.798 538.043C157.846 537.949 157.912 537.865 157.993 537.798C158.074 537.731 158.168 537.68 158.269 537.651C158.37 537.621 158.475 537.612 158.58 537.624C158.789 537.647 158.98 537.75 159.114 537.911C159.249 538.072 159.315 538.279 159.3 538.488C159.3 538.488 158.976 541.98 158.976 543.672C158.986 543.782 158.973 543.893 158.938 543.997C158.902 544.102 158.846 544.198 158.771 544.279C158.697 544.361 158.606 544.425 158.505 544.47C158.404 544.514 158.294 544.537 158.184 544.536Z" fill="white" stroke="#263238" stroke-width="0.5" stroke-linecap="round" stroke-linejoin="round"/>
<path d="M161.676 401.778C153.966 406.572 146.51 411.763 139.338 417.33C130.59 424.53 127.332 428.274 127.656 430.866C127.98 433.458 147.762 429.948 161.028 425.466C174.294 420.984 187.902 417.06 201.816 412.524C215.73 407.988 227.718 402.156 230.616 397.314C233.514 392.472 225.108 393.426 204.714 393.714C184.32 394.002 171.396 397.26 161.676 401.778Z" fill="#407BFF" stroke="#263238" stroke-width="0.75" stroke-linecap="round" stroke-linejoin="round"/>
<path opacity="0.4" d="M161.676 401.778C153.966 406.572 146.51 411.763 139.338 417.33C130.59 424.53 127.332 428.274 127.656 430.866C127.98 433.458 147.762 429.948 161.028 425.466C174.294 420.984 187.902 417.06 201.816 412.524C215.73 407.988 227.718 402.156 230.616 397.314C233.514 392.472 225.108 393.426 204.714 393.714C184.32 394.002 171.396 397.26 161.676 401.778Z" fill="white" stroke="#263238" stroke-width="0.75" stroke-linecap="round" stroke-linejoin="round"/>
<path d="M154.548 416.358C154.548 416.358 151.308 401.778 154.224 394.992C157.14 388.206 171.702 382.68 179.424 381.708C187.146 380.736 192.024 384.624 193.662 387.864C195.3 391.104 200.862 399.852 200.466 403.074C200.07 406.296 198.846 407.61 181.692 414.09C164.538 420.57 158.112 419.922 154.548 416.358Z" fill="#407BFF" stroke="#263238" stroke-width="0.75" stroke-linecap="round" stroke-linejoin="round"/>
<path opacity="0.4" d="M154.548 416.358C154.548 416.358 151.308 401.778 154.224 394.992C157.14 388.206 171.702 382.68 179.424 381.708C187.146 380.736 192.024 384.624 193.662 387.864C195.3 391.104 200.862 399.852 200.466 403.074C200.07 406.296 198.846 407.61 181.692 414.09C164.538 420.57 158.112 419.922 154.548 416.358Z" fill="white" stroke="#263238" stroke-width="0.75" stroke-linecap="round" stroke-linejoin="round"/>
<path d="M166.374 403.2C167.094 402.894 167.832 402.552 168.624 402.138" stroke="#263238" stroke-width="0.5" stroke-miterlimit="10" stroke-linecap="round"/>
<path d="M154.998 404.19C154.998 404.19 158.778 405.99 165.24 403.722" stroke="#263238" stroke-width="0.5" stroke-miterlimit="10" stroke-linecap="round"/>
<path d="M167.04 407.844C168.682 407.272 170.258 406.524 171.738 405.612" stroke="#263238" stroke-width="0.5" stroke-miterlimit="10" stroke-linecap="round"/>
<path d="M157.968 408.942C160.469 409.199 162.995 408.991 165.42 408.33" stroke="#263238" stroke-width="0.5" stroke-miterlimit="10" stroke-linecap="round"/>
<path d="M155.286 408.438C155.709 408.574 156.143 408.677 156.582 408.744" stroke="#263238" stroke-width="0.5" stroke-miterlimit="10" stroke-linecap="round"/>
<path d="M156.42 413.838C156.42 413.838 159.534 415.818 166.356 413.55" stroke="#263238" stroke-width="0.5" stroke-miterlimit="10" stroke-linecap="round"/>
</svg>
